<svg xmlns="http://www.w3.org/2000/svg" xmlns:xlink="http://www.w3.org/1999/xlink" width="1640" zoomAndPan="magnify" viewBox="0 0 1230 149.999998" height="200" preserveAspectRatio="xMidYMid meet" version="1.0"><defs><g/></defs><g fill="#ffffff" fill-opacity="1"><g transform="translate(-3.209243, 126.541553)"><g><path d="M 58.851562 -70.375 L 58.851562 -84.511719 L 7.222656 -54.394531 L 7.222656 -44.097656 L 58.851562 -13.984375 L 58.851562 -28.117188 L 24.277344 -49.324219 Z M 58.851562 -70.375 "/></g></g></g><g fill="#ffffff" fill-opacity="1"><g transform="translate(62.705791, 126.541553)"><g><path d="M 7.222656 -70.375 L 41.792969 -49.324219 L 7.222656 -28.117188 L 7.222656 -13.984375 L 58.851562 -44.097656 L 58.851562 -54.394531 L 7.222656 -84.511719 Z M 7.222656 -70.375 "/></g></g></g><g fill="#ffffff" fill-opacity="1"><g transform="translate(128.620826, 126.541553)"><g><path d="M 34.574219 -98.492188 L 4.457031 -98.648438 L 4.457031 -82.667969 L 11.371094 -82.667969 L 11.371094 -16.132812 L 4.457031 -16.132812 L 4.457031 0 L 38.875 0 L 38.875 -16.132812 L 31.960938 -16.132812 L 31.960938 -72.679688 L 58.390625 -30.882812 L 64.535156 -30.882812 L 91.117188 -72.679688 L 91.117188 -16.132812 L 83.894531 -16.132812 L 83.894531 0 L 118.46875 0 L 118.46875 -16.132812 L 111.398438 -16.132812 L 111.398438 -82.667969 L 118.46875 -82.667969 L 118.46875 -98.492188 L 88.351562 -98.492188 L 61.460938 -54.703125 Z M 34.574219 -98.492188 "/></g></g></g><g fill="#ffffff" fill-opacity="1"><g transform="translate(251.232017, 126.541553)"><g><path d="M 61.617188 -70.527344 L 59.617188 -64.226562 C 54.703125 -69.296875 47.785156 -72.523438 38.566406 -72.523438 C 17.363281 -72.523438 7.222656 -55.777344 7.222656 -35.1875 C 7.222656 -14.597656 17.363281 1.996094 38.566406 1.996094 C 47.785156 1.996094 54.703125 -1.230469 59.617188 -6.300781 L 61.617188 0 L 82.972656 0 L 82.972656 -14.289062 L 75.90625 -14.289062 L 75.90625 -70.527344 Z M 57.160156 -20.898438 C 54.394531 -15.671875 49.9375 -12.140625 42.871094 -12.140625 C 30.730469 -12.140625 25.8125 -22.433594 25.8125 -35.1875 C 25.8125 -47.941406 30.730469 -58.234375 42.871094 -58.234375 C 49.9375 -58.234375 54.394531 -54.703125 57.160156 -49.476562 Z M 57.160156 -20.898438 "/></g></g></g><g fill="#ffffff" fill-opacity="1"><g transform="translate(338.350499, 126.541553)"><g><path d="M 30.117188 -70.527344 L 30.117188 -84.511719 L 15.828125 -84.511719 L 11.371094 -70.527344 L 4.457031 -70.527344 L 4.457031 -56.238281 L 11.371094 -56.238281 L 11.371094 -25.8125 C 11.371094 -8.757812 20.898438 1.996094 38.875 1.996094 C 52.703125 1.996094 61.769531 -7.066406 61.769531 -7.066406 L 56.851562 -18.285156 C 56.851562 -18.285156 50.859375 -12.140625 42.253906 -12.140625 C 34.574219 -12.140625 30.117188 -17.210938 30.117188 -24.890625 L 30.117188 -56.238281 L 54.855469 -56.238281 L 54.855469 -70.527344 Z M 30.117188 -70.527344 "/></g></g></g><g fill="#ffffff" fill-opacity="1"><g transform="translate(401.346214, 126.541553)"><g><path d="M 30.117188 -70.527344 L 30.117188 -84.511719 L 15.828125 -84.511719 L 11.371094 -70.527344 L 4.457031 -70.527344 L 4.457031 -56.238281 L 11.371094 -56.238281 L 11.371094 -25.8125 C 11.371094 -8.757812 20.898438 1.996094 38.875 1.996094 C 52.703125 1.996094 61.769531 -7.066406 61.769531 -7.066406 L 56.851562 -18.285156 C 56.851562 -18.285156 50.859375 -12.140625 42.253906 -12.140625 C 34.574219 -12.140625 30.117188 -17.210938 30.117188 -24.890625 L 30.117188 -56.238281 L 54.855469 -56.238281 L 54.855469 -70.527344 Z M 30.117188 -70.527344 "/></g></g></g><g fill="#ffffff" fill-opacity="1"><g transform="translate(464.341953, 126.541553)"><g><path d="M 58.542969 0 L 84.355469 0 L 84.355469 -14.289062 L 77.289062 -14.289062 L 77.289062 -50.707031 C 77.289062 -64.382812 69.453125 -72.523438 53.320312 -72.523438 C 43.484375 -72.523438 35.800781 -68.992188 30.117188 -64.6875 L 30.117188 -112.78125 L 4.457031 -112.78125 L 4.457031 -98.492188 L 11.371094 -98.492188 L 11.371094 -14.289062 L 4.457031 -14.289062 L 4.457031 0 L 37.183594 0 L 37.183594 -14.289062 L 30.117188 -14.289062 L 30.117188 -50.398438 C 34.113281 -54.546875 39.644531 -58.234375 46.25 -58.234375 C 54.855469 -58.234375 58.542969 -53.472656 58.542969 -46.402344 Z M 58.542969 0 "/></g></g></g><g fill="#ffffff" fill-opacity="1"><g transform="translate(552.84329, 126.541553)"><g><path d="M 75.753906 -11.679688 L 70.835938 -22.894531 C 70.835938 -22.894531 63.304688 -12.140625 46.863281 -12.140625 C 34.574219 -12.140625 27.503906 -19.976562 26.121094 -30.882812 L 78.671875 -30.882812 L 78.671875 -35.648438 C 78.671875 -59.617188 64.382812 -72.523438 43.023438 -72.523438 C 18.746094 -72.523438 7.066406 -55.777344 7.066406 -35.1875 C 7.066406 -14.445312 18.746094 1.996094 43.023438 1.996094 C 66.53125 1.996094 75.753906 -11.679688 75.753906 -11.679688 Z M 59.617188 -42.5625 L 26.429688 -42.5625 C 28.117188 -51.78125 33.496094 -58.234375 43.175781 -58.234375 C 52.398438 -58.234375 58.082031 -52.242188 59.617188 -42.5625 Z M 59.617188 -42.5625 "/></g></g></g><g fill="#ffffff" fill-opacity="1"><g transform="translate(638.578963, 126.541553)"><g><path d="M 54.855469 -70.527344 L 40.105469 -19.359375 L 27.195312 -56.085938 L 33.035156 -56.085938 L 33.035156 -70.375 L 2.765625 -70.375 L 2.765625 -56.085938 L 9.527344 -56.085938 L 29.5 0 L 48.863281 0 L 63.460938 -51.933594 L 78.980469 0 L 98.03125 0 L 117.546875 -56.085938 L 124.152344 -56.085938 L 124.152344 -70.375 L 94.035156 -70.375 L 94.035156 -56.085938 L 99.875 -56.238281 L 87.582031 -19.359375 L 72.21875 -70.527344 Z M 54.855469 -70.527344 "/></g></g></g><g fill="#ffffff" fill-opacity="1"><g transform="translate(765.33865, 126.541553)"><g/></g></g><g fill="#ffffff" fill-opacity="1"><g transform="translate(807.59191, 126.541553)"><g><path d="M 69.914062 -98.648438 L 69.914062 -82.667969 L 76.980469 -82.667969 L 76.980469 -57.3125 L 31.960938 -57.3125 L 31.960938 -82.667969 L 38.875 -82.511719 L 38.875 -98.492188 L 4.457031 -98.648438 L 4.457031 -82.667969 L 11.371094 -82.667969 L 11.371094 -16.132812 L 4.457031 -16.132812 L 4.457031 0 L 38.875 0 L 38.875 -16.132812 L 31.960938 -16.132812 L 31.960938 -41.332031 L 76.980469 -41.332031 L 76.980469 -16.132812 L 69.914062 -16.132812 L 69.914062 0 L 104.332031 0 L 104.332031 -16.132812 L 97.417969 -16.132812 L 97.417969 -82.667969 L 104.332031 -82.511719 L 104.332031 -98.492188 Z M 69.914062 -98.648438 "/></g></g></g><g fill="#ffffff" fill-opacity="1"><g transform="translate(916.221149, 126.541553)"><g><path d="M 8.757812 -102.796875 C 8.757812 -96.1875 14.136719 -90.964844 20.742188 -90.964844 C 27.351562 -90.964844 32.574219 -96.1875 32.574219 -102.796875 C 32.574219 -109.402344 27.351562 -114.78125 20.742188 -114.78125 C 14.136719 -114.78125 8.757812 -109.402344 8.757812 -102.796875 Z M 4.457031 -70.527344 L 4.457031 -56.238281 L 11.371094 -56.238281 L 11.371094 -14.289062 L 4.457031 -14.289062 L 4.457031 0 L 37.183594 0 L 37.183594 -14.289062 L 30.117188 -14.289062 L 30.117188 -70.527344 Z M 4.457031 -70.527344 "/></g></g></g><g fill="#ffffff" fill-opacity="1"><g transform="translate(957.552475, 126.541553)"><g><path d="M 4.457031 -112.78125 L 4.457031 -98.492188 L 11.371094 -98.492188 L 11.371094 -14.289062 L 4.457031 -14.289062 L 4.457031 0 L 37.183594 0 L 37.183594 -14.289062 L 30.117188 -14.289062 L 30.117188 -112.78125 Z M 4.457031 -112.78125 "/></g></g></g><g fill="#ffffff" fill-opacity="1"><g transform="translate(998.8838, 126.541553)"><g><path d="M 4.457031 -112.78125 L 4.457031 -98.492188 L 11.371094 -98.492188 L 11.371094 -14.289062 L 4.457031 -14.289062 L 4.457031 0 L 37.183594 0 L 37.183594 -14.289062 L 30.117188 -14.289062 L 30.117188 -112.78125 Z M 4.457031 -112.78125 "/></g></g></g><g fill="#ffffff" fill-opacity="1"><g transform="translate(1040.215125, 126.541553)"><g><path d="M 58.851562 -70.375 L 58.851562 -84.511719 L 7.222656 -54.394531 L 7.222656 -44.097656 L 58.851562 -13.984375 L 58.851562 -28.117188 L 24.277344 -49.324219 Z M 58.851562 -70.375 "/></g></g></g><g fill="#ffffff" fill-opacity="1"><g transform="translate(1106.13016, 126.541553)"><g><path d="M 35.339844 -98.492188 L 7.222656 0 L 25.8125 0 L 54.085938 -98.492188 Z M 35.339844 -98.492188 "/></g></g></g><g fill="#ffffff" fill-opacity="1"><g transform="translate(1167.282123, 126.541553)"><g><path d="M 7.222656 -70.375 L 41.792969 -49.324219 L 7.222656 -28.117188 L 7.222656 -13.984375 L 58.851562 -44.097656 L 58.851562 -54.394531 L 7.222656 -84.511719 Z M 7.222656 -70.375 "/></g></g></g><g fill="#000000" fill-opacity="1"><g transform="translate(612.873142, 75.487014)"><g><path d="M 1.28125 -0.199219 L 1.199219 -0.386719 C 1.199219 -0.386719 1.070312 -0.207031 0.792969 -0.207031 C 0.585938 -0.207031 0.464844 -0.335938 0.441406 -0.523438 L 1.328125 -0.523438 L 1.328125 -0.601562 C 1.328125 -1.007812 1.089844 -1.226562 0.726562 -1.226562 C 0.316406 -1.226562 0.121094 -0.941406 0.121094 -0.59375 C 0.121094 -0.246094 0.316406 0.0351562 0.726562 0.0351562 C 1.125 0.0351562 1.28125 -0.199219 1.28125 -0.199219 Z M 1.007812 -0.71875 L 0.445312 -0.71875 C 0.476562 -0.875 0.566406 -0.984375 0.730469 -0.984375 C 0.886719 -0.984375 0.980469 -0.882812 1.007812 -0.71875 Z M 1.007812 -0.71875 "/></g></g></g><g fill="#000000" fill-opacity="1"><g transform="translate(614.322497, 75.487014)"><g><path d="M 1.179688 -0.375 C 1.179688 -0.375 1.042969 -0.207031 0.792969 -0.207031 C 0.554688 -0.207031 0.4375 -0.378906 0.4375 -0.59375 C 0.4375 -0.808594 0.546875 -0.984375 0.785156 -0.984375 C 0.851562 -0.984375 0.910156 -0.96875 0.957031 -0.949219 L 0.976562 -0.746094 L 1.21875 -0.746094 L 1.21875 -1.003906 C 1.21875 -1.003906 1.101562 -1.226562 0.726562 -1.226562 C 0.316406 -1.226562 0.121094 -0.941406 0.121094 -0.59375 C 0.121094 -0.246094 0.320312 0.0351562 0.726562 0.0351562 C 1.113281 0.0351562 1.265625 -0.191406 1.265625 -0.191406 Z M 1.179688 -0.375 "/></g></g></g><g fill="#000000" fill-opacity="1"><g transform="translate(615.628994, 75.487014)"><g><path d="M 0.988281 0 L 1.425781 0 L 1.425781 -0.242188 L 1.304688 -0.242188 L 1.304688 -0.855469 C 1.304688 -1.089844 1.175781 -1.226562 0.902344 -1.226562 C 0.734375 -1.226562 0.605469 -1.167969 0.507812 -1.09375 L 0.507812 -1.90625 L 0.0742188 -1.90625 L 0.0742188 -1.664062 L 0.191406 -1.664062 L 0.191406 -0.242188 L 0.0742188 -0.242188 L 0.0742188 0 L 0.628906 0 L 0.628906 -0.242188 L 0.507812 -0.242188 L 0.507812 -0.851562 C 0.578125 -0.921875 0.671875 -0.984375 0.78125 -0.984375 C 0.925781 -0.984375 0.988281 -0.902344 0.988281 -0.785156 Z M 0.988281 0 "/></g></g></g></svg>