<svg xmlns="http://www.w3.org/2000/svg" xmlns:xlink="http://www.w3.org/1999/xlink" width="1640" zoomAndPan="magnify" viewBox="0 0 1230 693.000001" height="924" preserveAspectRatio="xMidYMid meet" version="1.0"><defs><g/><clipPath id="d34acba267"><path d="M 0.886719 0 L 1229.113281 0 L 1229.113281 692 L 0.886719 692 Z M 0.886719 0 " clip-rule="nonzero"/></clipPath></defs><g clip-path="url(#d34acba267)"><path fill="#ffffff" d="M 0.886719 0 L 1229.113281 0 L 1229.113281 699.492188 L 0.886719 699.492188 Z M 0.886719 0 " fill-opacity="1" fill-rule="nonzero"/><path fill="#ffffff" d="M 0.886719 0 L 1229.113281 0 L 1229.113281 692 L 0.886719 692 Z M 0.886719 0 " fill-opacity="1" fill-rule="nonzero"/><path fill="#ffffff" d="M 0.886719 0 L 1229.113281 0 L 1229.113281 692 L 0.886719 692 Z M 0.886719 0 " fill-opacity="1" fill-rule="nonzero"/></g><g fill="#000000" fill-opacity="1"><g transform="translate(16.318549, 387.083507)"><g><path d="M 57.726562 -69.03125 L 57.726562 -82.898438 L 7.082031 -53.355469 L 7.082031 -43.257812 L 57.726562 -13.714844 L 57.726562 -27.582031 L 23.8125 -48.382812 Z M 57.726562 -69.03125 "/></g></g></g><g fill="#000000" fill-opacity="1"><g transform="translate(80.970041, 387.083507)"><g><path d="M 7.082031 -69.03125 L 40.996094 -48.382812 L 7.082031 -27.582031 L 7.082031 -13.714844 L 57.726562 -43.257812 L 57.726562 -53.355469 L 7.082031 -82.898438 Z M 7.082031 -69.03125 "/></g></g></g><g fill="#000000" fill-opacity="1"><g transform="translate(145.621533, 387.083507)"><g><path d="M 33.914062 -96.613281 L 4.371094 -96.761719 L 4.371094 -81.089844 L 11.152344 -81.089844 L 11.152344 -15.824219 L 4.371094 -15.824219 L 4.371094 0 L 38.132812 0 L 38.132812 -15.824219 L 31.351562 -15.824219 L 31.351562 -71.292969 L 57.273438 -30.296875 L 63.304688 -30.296875 L 89.378906 -71.292969 L 89.378906 -15.824219 L 82.292969 -15.824219 L 82.292969 0 L 116.207031 0 L 116.207031 -15.824219 L 109.273438 -15.824219 L 109.273438 -81.089844 L 116.207031 -81.089844 L 116.207031 -96.613281 L 86.664062 -96.613281 L 60.289062 -53.65625 Z M 33.914062 -96.613281 "/></g></g></g><g fill="#000000" fill-opacity="1"><g transform="translate(265.882391, 387.083507)"><g><path d="M 60.441406 -69.179688 L 58.480469 -63 C 53.65625 -67.976562 46.875 -71.140625 37.832031 -71.140625 C 17.03125 -71.140625 7.082031 -54.710938 7.082031 -34.515625 C 7.082031 -14.320312 17.03125 1.960938 37.832031 1.960938 C 46.875 1.960938 53.65625 -1.207031 58.480469 -6.179688 L 60.441406 0 L 81.390625 0 L 81.390625 -14.015625 L 74.457031 -14.015625 L 74.457031 -69.179688 Z M 56.070312 -20.5 C 53.355469 -15.375 48.984375 -11.90625 42.050781 -11.90625 C 30.144531 -11.90625 25.320312 -22.003906 25.320312 -34.515625 C 25.320312 -47.023438 30.144531 -57.125 42.050781 -57.125 C 48.984375 -57.125 53.355469 -53.65625 56.070312 -48.53125 Z M 56.070312 -20.5 "/></g></g></g><g fill="#000000" fill-opacity="1"><g transform="translate(351.330892, 387.083507)"><g><path d="M 29.542969 -69.179688 L 29.542969 -82.898438 L 15.523438 -82.898438 L 11.152344 -69.179688 L 4.371094 -69.179688 L 4.371094 -55.164062 L 11.152344 -55.164062 L 11.152344 -25.320312 C 11.152344 -8.589844 20.5 1.960938 38.132812 1.960938 C 51.699219 1.960938 60.589844 -6.933594 60.589844 -6.933594 L 55.765625 -17.9375 C 55.765625 -17.9375 49.890625 -11.90625 41.449219 -11.90625 C 33.914062 -11.90625 29.542969 -16.882812 29.542969 -24.417969 L 29.542969 -55.164062 L 53.808594 -55.164062 L 53.808594 -69.179688 Z M 29.542969 -69.179688 "/></g></g></g><g fill="#000000" fill-opacity="1"><g transform="translate(413.119067, 387.083507)"><g><path d="M 29.542969 -69.179688 L 29.542969 -82.898438 L 15.523438 -82.898438 L 11.152344 -69.179688 L 4.371094 -69.179688 L 4.371094 -55.164062 L 11.152344 -55.164062 L 11.152344 -25.320312 C 11.152344 -8.589844 20.5 1.960938 38.132812 1.960938 C 51.699219 1.960938 60.589844 -6.933594 60.589844 -6.933594 L 55.765625 -17.9375 C 55.765625 -17.9375 49.890625 -11.90625 41.449219 -11.90625 C 33.914062 -11.90625 29.542969 -16.882812 29.542969 -24.417969 L 29.542969 -55.164062 L 53.808594 -55.164062 L 53.808594 -69.179688 Z M 29.542969 -69.179688 "/></g></g></g><g fill="#000000" fill-opacity="1"><g transform="translate(474.907242, 387.083507)"><g><path d="M 57.425781 0 L 82.746094 0 L 82.746094 -14.015625 L 75.8125 -14.015625 L 75.8125 -49.738281 C 75.8125 -63.152344 68.125 -71.140625 52.300781 -71.140625 C 42.65625 -71.140625 35.117188 -67.675781 29.542969 -63.453125 L 29.542969 -110.628906 L 4.371094 -110.628906 L 4.371094 -96.613281 L 11.152344 -96.613281 L 11.152344 -14.015625 L 4.371094 -14.015625 L 4.371094 0 L 36.476562 0 L 36.476562 -14.015625 L 29.542969 -14.015625 L 29.542969 -49.4375 C 33.460938 -53.507812 38.886719 -57.125 45.367188 -57.125 C 53.808594 -57.125 57.425781 -52.453125 57.425781 -45.519531 Z M 57.425781 0 "/></g></g></g><g fill="#000000" fill-opacity="1"><g transform="translate(561.712066, 387.083507)"><g><path d="M 74.304688 -11.453125 L 69.484375 -22.457031 C 69.484375 -22.457031 62.097656 -11.90625 45.96875 -11.90625 C 33.914062 -11.90625 26.980469 -19.59375 25.621094 -30.296875 L 77.167969 -30.296875 L 77.167969 -34.96875 C 77.167969 -58.480469 63.152344 -71.140625 42.203125 -71.140625 C 18.386719 -71.140625 6.933594 -54.710938 6.933594 -34.515625 C 6.933594 -14.167969 18.386719 1.960938 42.203125 1.960938 C 65.261719 1.960938 74.304688 -11.453125 74.304688 -11.453125 Z M 58.480469 -41.75 L 25.925781 -41.75 C 27.582031 -50.792969 32.855469 -57.125 42.351562 -57.125 C 51.394531 -57.125 56.972656 -51.246094 58.480469 -41.75 Z M 58.480469 -41.75 "/></g></g></g><g fill="#000000" fill-opacity="1"><g transform="translate(645.804244, 387.083507)"><g><path d="M 53.808594 -69.179688 L 39.339844 -18.992188 L 26.679688 -55.011719 L 32.40625 -55.011719 L 32.40625 -69.03125 L 2.714844 -69.03125 L 2.714844 -55.011719 L 9.34375 -55.011719 L 28.9375 0 L 47.929688 0 L 62.25 -50.945312 L 77.472656 0 L 96.160156 0 L 115.300781 -55.011719 L 121.785156 -55.011719 L 121.785156 -69.03125 L 92.242188 -69.03125 L 92.242188 -55.011719 L 97.96875 -55.164062 L 85.910156 -18.992188 L 70.839844 -69.179688 Z M 53.808594 -69.179688 "/></g></g></g><g fill="#000000" fill-opacity="1"><g transform="translate(770.134068, 387.083507)"><g/></g></g><g fill="#000000" fill-opacity="1"><g transform="translate(811.577359, 387.083507)"><g><path d="M 68.578125 -96.761719 L 68.578125 -81.089844 L 75.511719 -81.089844 L 75.511719 -56.21875 L 31.351562 -56.21875 L 31.351562 -81.089844 L 38.132812 -80.9375 L 38.132812 -96.613281 L 4.371094 -96.761719 L 4.371094 -81.089844 L 11.152344 -81.089844 L 11.152344 -15.824219 L 4.371094 -15.824219 L 4.371094 0 L 38.132812 0 L 38.132812 -15.824219 L 31.351562 -15.824219 L 31.351562 -40.542969 L 75.511719 -40.542969 L 75.511719 -15.824219 L 68.578125 -15.824219 L 68.578125 0 L 102.339844 0 L 102.339844 -15.824219 L 95.558594 -15.824219 L 95.558594 -81.089844 L 102.339844 -80.9375 L 102.339844 -96.613281 Z M 68.578125 -96.761719 "/></g></g></g><g fill="#000000" fill-opacity="1"><g transform="translate(918.124321, 387.083507)"><g><path d="M 8.589844 -100.832031 C 8.589844 -94.351562 13.867188 -89.226562 20.347656 -89.226562 C 26.828125 -89.226562 31.953125 -94.351562 31.953125 -100.832031 C 31.953125 -107.3125 26.828125 -112.589844 20.347656 -112.589844 C 13.867188 -112.589844 8.589844 -107.3125 8.589844 -100.832031 Z M 4.371094 -69.179688 L 4.371094 -55.164062 L 11.152344 -55.164062 L 11.152344 -14.015625 L 4.371094 -14.015625 L 4.371094 0 L 36.476562 0 L 36.476562 -14.015625 L 29.542969 -14.015625 L 29.542969 -69.179688 Z M 4.371094 -69.179688 "/></g></g></g><g fill="#000000" fill-opacity="1"><g transform="translate(958.663311, 387.083507)"><g><path d="M 4.371094 -110.628906 L 4.371094 -96.613281 L 11.152344 -96.613281 L 11.152344 -14.015625 L 4.371094 -14.015625 L 4.371094 0 L 36.476562 0 L 36.476562 -14.015625 L 29.542969 -14.015625 L 29.542969 -110.628906 Z M 4.371094 -110.628906 "/></g></g></g><g fill="#000000" fill-opacity="1"><g transform="translate(999.202301, 387.083507)"><g><path d="M 4.371094 -110.628906 L 4.371094 -96.613281 L 11.152344 -96.613281 L 11.152344 -14.015625 L 4.371094 -14.015625 L 4.371094 0 L 36.476562 0 L 36.476562 -14.015625 L 29.542969 -14.015625 L 29.542969 -110.628906 Z M 4.371094 -110.628906 "/></g></g></g><g fill="#000000" fill-opacity="1"><g transform="translate(1039.74129, 387.083507)"><g><path d="M 57.726562 -69.03125 L 57.726562 -82.898438 L 7.082031 -53.355469 L 7.082031 -43.257812 L 57.726562 -13.714844 L 57.726562 -27.582031 L 23.8125 -48.382812 Z M 57.726562 -69.03125 "/></g></g></g><g fill="#000000" fill-opacity="1"><g transform="translate(1104.392837, 387.083507)"><g><path d="M 34.667969 -96.613281 L 7.082031 0 L 25.320312 0 L 53.054688 -96.613281 Z M 34.667969 -96.613281 "/></g></g></g><g fill="#000000" fill-opacity="1"><g transform="translate(1164.372564, 387.083507)"><g><path d="M 7.082031 -69.03125 L 40.996094 -48.382812 L 7.082031 -27.582031 L 7.082031 -13.714844 L 57.726562 -43.257812 L 57.726562 -53.355469 L 7.082031 -82.898438 Z M 7.082031 -69.03125 "/></g></g></g><g fill="#000000" fill-opacity="1"><g transform="translate(605.187958, 348.247484)"><g><path d="M 5.90625 -0.910156 L 5.523438 -1.785156 C 5.523438 -1.785156 4.9375 -0.945312 3.65625 -0.945312 C 2.695312 -0.945312 2.144531 -1.558594 2.035156 -2.410156 L 6.136719 -2.410156 L 6.136719 -2.78125 C 6.136719 -4.648438 5.019531 -5.65625 3.355469 -5.65625 C 1.460938 -5.65625 0.550781 -4.351562 0.550781 -2.742188 C 0.550781 -1.125 1.460938 0.15625 3.355469 0.15625 C 5.1875 0.15625 5.90625 -0.910156 5.90625 -0.910156 Z M 4.648438 -3.320312 L 2.0625 -3.320312 C 2.191406 -4.039062 2.613281 -4.542969 3.367188 -4.542969 C 4.085938 -4.542969 4.53125 -4.074219 4.648438 -3.320312 Z M 4.648438 -3.320312 "/></g></g></g><g fill="#000000" fill-opacity="1"><g transform="translate(611.874327, 348.247484)"><g><path d="M 5.441406 -1.726562 C 5.441406 -1.726562 4.816406 -0.945312 3.65625 -0.945312 C 2.5625 -0.945312 2.011719 -1.75 2.011719 -2.742188 C 2.011719 -3.738281 2.527344 -4.542969 3.617188 -4.542969 C 3.929688 -4.542969 4.207031 -4.46875 4.410156 -4.386719 L 4.503906 -3.4375 L 5.621094 -3.4375 L 5.621094 -4.636719 C 5.621094 -4.636719 5.082031 -5.65625 3.355469 -5.65625 C 1.460938 -5.65625 0.5625 -4.351562 0.5625 -2.742188 C 0.5625 -1.136719 1.472656 0.167969 3.355469 0.167969 C 5.140625 0.167969 5.835938 -0.875 5.835938 -0.875 Z M 5.441406 -1.726562 "/></g></g></g><g fill="#000000" fill-opacity="1"><g transform="translate(617.901644, 348.247484)"><g><path d="M 4.566406 0 L 6.578125 0 L 6.578125 -1.113281 L 6.027344 -1.113281 L 6.027344 -3.953125 C 6.027344 -5.019531 5.417969 -5.65625 4.15625 -5.65625 C 3.390625 -5.65625 2.792969 -5.378906 2.347656 -5.042969 L 2.347656 -8.796875 L 0.347656 -8.796875 L 0.347656 -7.679688 L 0.886719 -7.679688 L 0.886719 -1.113281 L 0.347656 -1.113281 L 0.347656 0 L 2.898438 0 L 2.898438 -1.113281 L 2.347656 -1.113281 L 2.347656 -3.929688 C 2.660156 -4.253906 3.089844 -4.542969 3.605469 -4.542969 C 4.277344 -4.542969 4.566406 -4.171875 4.566406 -3.617188 Z M 4.566406 0 "/></g></g></g></svg>