<svg xmlns="http://www.w3.org/2000/svg" xmlns:xlink="http://www.w3.org/1999/xlink" width="1640" zoomAndPan="magnify" viewBox="0 0 1230 693.000001" height="924" preserveAspectRatio="xMidYMid meet" version="1.0"><defs><g/><clipPath id="019dd8028d"><path d="M 0.886719 0 L 1229.113281 0 L 1229.113281 692 L 0.886719 692 Z M 0.886719 0 " clip-rule="nonzero"/></clipPath></defs><g clip-path="url(#019dd8028d)"><path fill="#ffffff" d="M 0.886719 0 L 1229.113281 0 L 1229.113281 699.492188 L 0.886719 699.492188 Z M 0.886719 0 " fill-opacity="1" fill-rule="nonzero"/><path fill="#ffffff" d="M 0.886719 0 L 1229.113281 0 L 1229.113281 692 L 0.886719 692 Z M 0.886719 0 " fill-opacity="1" fill-rule="nonzero"/><path fill="#000000" d="M 0.886719 0 L 1229.113281 0 L 1229.113281 692 L 0.886719 692 Z M 0.886719 0 " fill-opacity="1" fill-rule="nonzero"/></g><g fill="#ffffff" fill-opacity="1"><g transform="translate(6.961139, 378.734423)"><g><path d="M 56.835938 -67.964844 L 56.835938 -81.617188 L 6.976562 -52.53125 L 6.976562 -42.589844 L 56.835938 -13.503906 L 56.835938 -27.15625 L 23.445312 -47.636719 Z M 56.835938 -67.964844 "/></g></g></g><g fill="#ffffff" fill-opacity="1"><g transform="translate(70.621014, 378.734423)"><g><path d="M 6.976562 -67.964844 L 40.363281 -47.636719 L 6.976562 -27.15625 L 6.976562 -13.503906 L 56.835938 -42.589844 L 56.835938 -52.53125 L 6.976562 -81.617188 Z M 6.976562 -67.964844 "/></g></g></g><g fill="#ffffff" fill-opacity="1"><g transform="translate(134.280889, 378.734423)"><g><path d="M 33.390625 -95.125 L 4.304688 -95.273438 L 4.304688 -79.839844 L 10.980469 -79.839844 L 10.980469 -15.582031 L 4.304688 -15.582031 L 4.304688 0 L 37.542969 0 L 37.542969 -15.582031 L 30.867188 -15.582031 L 30.867188 -70.191406 L 56.390625 -29.828125 L 62.328125 -29.828125 L 88 -70.191406 L 88 -15.582031 L 81.027344 -15.582031 L 81.027344 0 L 114.414062 0 L 114.414062 -15.582031 L 107.589844 -15.582031 L 107.589844 -79.839844 L 114.414062 -79.839844 L 114.414062 -95.125 L 85.328125 -95.125 L 59.359375 -52.828125 Z M 33.390625 -95.125 "/></g></g></g><g fill="#ffffff" fill-opacity="1"><g transform="translate(252.697168, 378.734423)"><g><path d="M 59.507812 -68.113281 L 57.578125 -62.03125 C 52.828125 -66.925781 46.152344 -70.042969 37.246094 -70.042969 C 16.769531 -70.042969 6.976562 -53.867188 6.976562 -33.984375 C 6.976562 -14.097656 16.769531 1.929688 37.246094 1.929688 C 46.152344 1.929688 52.828125 -1.1875 57.578125 -6.085938 L 59.507812 0 L 80.136719 0 L 80.136719 -13.800781 L 73.308594 -13.800781 L 73.308594 -68.113281 Z M 55.203125 -20.183594 C 52.53125 -15.136719 48.230469 -11.722656 41.402344 -11.722656 C 29.679688 -11.722656 24.929688 -21.667969 24.929688 -33.984375 C 24.929688 -46.300781 29.679688 -56.242188 41.402344 -56.242188 C 48.230469 -56.242188 52.53125 -52.828125 55.203125 -47.785156 Z M 55.203125 -20.183594 "/></g></g></g><g fill="#ffffff" fill-opacity="1"><g transform="translate(336.835054, 378.734423)"><g><path d="M 29.085938 -68.113281 L 29.085938 -81.617188 L 15.285156 -81.617188 L 10.980469 -68.113281 L 4.304688 -68.113281 L 4.304688 -54.3125 L 10.980469 -54.3125 L 10.980469 -24.929688 C 10.980469 -8.457031 20.183594 1.929688 37.542969 1.929688 C 50.902344 1.929688 59.65625 -6.828125 59.65625 -6.828125 L 54.90625 -17.660156 C 54.90625 -17.660156 49.121094 -11.722656 40.808594 -11.722656 C 33.390625 -11.722656 29.085938 -16.621094 29.085938 -24.039062 L 29.085938 -54.3125 L 52.976562 -54.3125 L 52.976562 -68.113281 Z M 29.085938 -68.113281 "/></g></g></g><g fill="#ffffff" fill-opacity="1"><g transform="translate(397.675489, 378.734423)"><g><path d="M 29.085938 -68.113281 L 29.085938 -81.617188 L 15.285156 -81.617188 L 10.980469 -68.113281 L 4.304688 -68.113281 L 4.304688 -54.3125 L 10.980469 -54.3125 L 10.980469 -24.929688 C 10.980469 -8.457031 20.183594 1.929688 37.542969 1.929688 C 50.902344 1.929688 59.65625 -6.828125 59.65625 -6.828125 L 54.90625 -17.660156 C 54.90625 -17.660156 49.121094 -11.722656 40.808594 -11.722656 C 33.390625 -11.722656 29.085938 -16.621094 29.085938 -24.039062 L 29.085938 -54.3125 L 52.976562 -54.3125 L 52.976562 -68.113281 Z M 29.085938 -68.113281 "/></g></g></g><g fill="#ffffff" fill-opacity="1"><g transform="translate(458.515947, 378.734423)"><g><path d="M 56.539062 0 L 81.46875 0 L 81.46875 -13.800781 L 74.644531 -13.800781 L 74.644531 -48.972656 C 74.644531 -62.179688 67.074219 -70.042969 51.496094 -70.042969 C 41.996094 -70.042969 34.578125 -66.632812 29.085938 -62.476562 L 29.085938 -108.925781 L 4.304688 -108.925781 L 4.304688 -95.125 L 10.980469 -95.125 L 10.980469 -13.800781 L 4.304688 -13.800781 L 4.304688 0 L 35.914062 0 L 35.914062 -13.800781 L 29.085938 -13.800781 L 29.085938 -48.675781 C 32.945312 -52.679688 38.285156 -56.242188 44.667969 -56.242188 C 52.976562 -56.242188 56.539062 -51.644531 56.539062 -44.816406 Z M 56.539062 0 "/></g></g></g><g fill="#ffffff" fill-opacity="1"><g transform="translate(543.989376, 378.734423)"><g><path d="M 73.160156 -11.277344 L 68.410156 -22.113281 C 68.410156 -22.113281 61.140625 -11.722656 45.261719 -11.722656 C 33.390625 -11.722656 26.5625 -19.292969 25.226562 -29.828125 L 75.980469 -29.828125 L 75.980469 -34.429688 C 75.980469 -57.578125 62.179688 -70.042969 41.550781 -70.042969 C 18.105469 -70.042969 6.828125 -53.867188 6.828125 -33.984375 C 6.828125 -13.949219 18.105469 1.929688 41.550781 1.929688 C 64.257812 1.929688 73.160156 -11.277344 73.160156 -11.277344 Z M 57.578125 -41.105469 L 25.523438 -41.105469 C 27.15625 -50.011719 32.351562 -56.242188 41.699219 -56.242188 C 50.605469 -56.242188 56.09375 -50.457031 57.578125 -41.105469 Z M 57.578125 -41.105469 "/></g></g></g><g fill="#ffffff" fill-opacity="1"><g transform="translate(626.791764, 378.734423)"><g><path d="M 52.976562 -68.113281 L 38.730469 -18.699219 L 26.265625 -54.164062 L 31.90625 -54.164062 L 31.90625 -67.964844 L 2.671875 -67.964844 L 2.671875 -54.164062 L 9.199219 -54.164062 L 28.492188 0 L 47.191406 0 L 61.289062 -50.160156 L 76.277344 0 L 94.679688 0 L 113.523438 -54.164062 L 119.90625 -54.164062 L 119.90625 -67.964844 L 90.820312 -67.964844 L 90.820312 -54.164062 L 96.457031 -54.3125 L 84.585938 -18.699219 L 69.746094 -68.113281 Z M 52.976562 -68.113281 "/></g></g></g><g fill="#ffffff" fill-opacity="1"><g transform="translate(749.214605, 378.734423)"><g/></g></g><g fill="#ffffff" fill-opacity="1"><g transform="translate(790.022248, 378.734423)"><g><path d="M 67.519531 -95.273438 L 67.519531 -79.839844 L 74.347656 -79.839844 L 74.347656 -55.351562 L 30.867188 -55.351562 L 30.867188 -79.839844 L 37.542969 -79.691406 L 37.542969 -95.125 L 4.304688 -95.273438 L 4.304688 -79.839844 L 10.980469 -79.839844 L 10.980469 -15.582031 L 4.304688 -15.582031 L 4.304688 0 L 37.542969 0 L 37.542969 -15.582031 L 30.867188 -15.582031 L 30.867188 -39.917969 L 74.347656 -39.917969 L 74.347656 -15.582031 L 67.519531 -15.582031 L 67.519531 0 L 100.761719 0 L 100.761719 -15.582031 L 94.085938 -15.582031 L 94.085938 -79.839844 L 100.761719 -79.691406 L 100.761719 -95.125 Z M 67.519531 -95.273438 "/></g></g></g><g fill="#ffffff" fill-opacity="1"><g transform="translate(894.934942, 378.734423)"><g><path d="M 8.457031 -99.277344 C 8.457031 -92.898438 13.652344 -87.851562 20.035156 -87.851562 C 26.414062 -87.851562 31.460938 -92.898438 31.460938 -99.277344 C 31.460938 -105.660156 26.414062 -110.855469 20.035156 -110.855469 C 13.652344 -110.855469 8.457031 -105.660156 8.457031 -99.277344 Z M 4.304688 -68.113281 L 4.304688 -54.3125 L 10.980469 -54.3125 L 10.980469 -13.800781 L 4.304688 -13.800781 L 4.304688 0 L 35.914062 0 L 35.914062 -13.800781 L 29.085938 -13.800781 L 29.085938 -68.113281 Z M 4.304688 -68.113281 "/></g></g></g><g fill="#ffffff" fill-opacity="1"><g transform="translate(934.852193, 378.734423)"><g><path d="M 4.304688 -108.925781 L 4.304688 -95.125 L 10.980469 -95.125 L 10.980469 -13.800781 L 4.304688 -13.800781 L 4.304688 0 L 35.914062 0 L 35.914062 -13.800781 L 29.085938 -13.800781 L 29.085938 -108.925781 Z M 4.304688 -108.925781 "/></g></g></g><g fill="#ffffff" fill-opacity="1"><g transform="translate(974.769445, 378.734423)"><g><path d="M 4.304688 -108.925781 L 4.304688 -95.125 L 10.980469 -95.125 L 10.980469 -13.800781 L 4.304688 -13.800781 L 4.304688 0 L 35.914062 0 L 35.914062 -13.800781 L 29.085938 -13.800781 L 29.085938 -108.925781 Z M 4.304688 -108.925781 "/></g></g></g><g fill="#ffffff" fill-opacity="1"><g transform="translate(1014.686696, 378.734423)"><g><path d="M 56.835938 -67.964844 L 56.835938 -81.617188 L 6.976562 -52.53125 L 6.976562 -42.589844 L 56.835938 -13.503906 L 56.835938 -27.15625 L 23.445312 -47.636719 Z M 56.835938 -67.964844 "/></g></g></g><g fill="#ffffff" fill-opacity="1"><g transform="translate(1078.346572, 378.734423)"><g><path d="M 34.132812 -95.125 L 6.976562 0 L 24.929688 0 L 52.234375 -95.125 Z M 34.132812 -95.125 "/></g></g></g><g fill="#ffffff" fill-opacity="1"><g transform="translate(1137.406335, 378.734423)"><g><path d="M 6.976562 -67.964844 L 40.363281 -47.636719 L 6.976562 -27.15625 L 6.976562 -13.503906 L 56.835938 -42.589844 L 56.835938 -52.53125 L 6.976562 -81.617188 Z M 6.976562 -67.964844 "/></g></g></g><g fill="#000000" fill-opacity="1"><g transform="translate(605.187958, 348.247484)"><g><path d="M 5.90625 -0.910156 L 5.523438 -1.785156 C 5.523438 -1.785156 4.9375 -0.945312 3.65625 -0.945312 C 2.695312 -0.945312 2.144531 -1.558594 2.035156 -2.410156 L 6.136719 -2.410156 L 6.136719 -2.78125 C 6.136719 -4.648438 5.019531 -5.65625 3.355469 -5.65625 C 1.460938 -5.65625 0.550781 -4.351562 0.550781 -2.742188 C 0.550781 -1.125 1.460938 0.15625 3.355469 0.15625 C 5.1875 0.15625 5.90625 -0.910156 5.90625 -0.910156 Z M 4.648438 -3.320312 L 2.0625 -3.320312 C 2.191406 -4.039062 2.613281 -4.542969 3.367188 -4.542969 C 4.085938 -4.542969 4.53125 -4.074219 4.648438 -3.320312 Z M 4.648438 -3.320312 "/></g></g></g><g fill="#000000" fill-opacity="1"><g transform="translate(611.874327, 348.247484)"><g><path d="M 5.441406 -1.726562 C 5.441406 -1.726562 4.816406 -0.945312 3.65625 -0.945312 C 2.5625 -0.945312 2.011719 -1.75 2.011719 -2.742188 C 2.011719 -3.738281 2.527344 -4.542969 3.617188 -4.542969 C 3.929688 -4.542969 4.207031 -4.46875 4.410156 -4.386719 L 4.503906 -3.4375 L 5.621094 -3.4375 L 5.621094 -4.636719 C 5.621094 -4.636719 5.082031 -5.65625 3.355469 -5.65625 C 1.460938 -5.65625 0.5625 -4.351562 0.5625 -2.742188 C 0.5625 -1.136719 1.472656 0.167969 3.355469 0.167969 C 5.140625 0.167969 5.835938 -0.875 5.835938 -0.875 Z M 5.441406 -1.726562 "/></g></g></g><g fill="#000000" fill-opacity="1"><g transform="translate(617.901644, 348.247484)"><g><path d="M 4.566406 0 L 6.578125 0 L 6.578125 -1.113281 L 6.027344 -1.113281 L 6.027344 -3.953125 C 6.027344 -5.019531 5.417969 -5.65625 4.15625 -5.65625 C 3.390625 -5.65625 2.792969 -5.378906 2.347656 -5.042969 L 2.347656 -8.796875 L 0.347656 -8.796875 L 0.347656 -7.679688 L 0.886719 -7.679688 L 0.886719 -1.113281 L 0.347656 -1.113281 L 0.347656 0 L 2.898438 0 L 2.898438 -1.113281 L 2.347656 -1.113281 L 2.347656 -3.929688 C 2.660156 -4.253906 3.089844 -4.542969 3.605469 -4.542969 C 4.277344 -4.542969 4.566406 -4.171875 4.566406 -3.617188 Z M 4.566406 0 "/></g></g></g></svg>