<svg xmlns="http://www.w3.org/2000/svg" xmlns:xlink="http://www.w3.org/1999/xlink" width="500" zoomAndPan="magnify" viewBox="0 0 375 374.999991" height="500" preserveAspectRatio="xMidYMid meet" version="1.0"><defs><clipPath id="ee994ca8ae"><path d="M 0 6.476562 L 375 6.476562 L 375 368.726562 L 0 368.726562 Z M 0 6.476562 " clip-rule="nonzero"/></clipPath></defs><path fill="#ffffff" d="M 25.875 32.351562 L 38.804688 32.351562 L 38.804688 45.289062 L 25.875 45.289062 Z M 25.875 32.351562 " fill-opacity="1" fill-rule="nonzero"/><path fill="#ffffff" d="M 51.734375 32.351562 L 64.664062 32.351562 L 64.664062 45.289062 L 51.734375 45.289062 Z M 51.734375 32.351562 " fill-opacity="1" fill-rule="nonzero"/><path fill="#ffffff" d="M 77.59375 32.351562 L 90.523438 32.351562 L 90.523438 45.289062 L 77.59375 45.289062 Z M 77.59375 32.351562 " fill-opacity="1" fill-rule="nonzero"/><g clip-path="url(#ee994ca8ae)"><path fill="#ffffff" d="M 349.125 6.476562 L 25.875 6.476562 C 25.027344 6.476562 24.183594 6.519531 23.339844 6.605469 C 22.5 6.6875 21.664062 6.8125 20.832031 6.980469 C 20.003906 7.144531 19.183594 7.351562 18.371094 7.597656 C 17.5625 7.84375 16.765625 8.128906 15.984375 8.453125 C 15.203125 8.78125 14.4375 9.140625 13.691406 9.542969 C 12.945312 9.941406 12.21875 10.375 11.515625 10.847656 C 10.8125 11.316406 10.132812 11.820312 9.476562 12.359375 C 8.824219 12.898438 8.195312 13.464844 7.597656 14.0625 C 7 14.664062 6.429688 15.289062 5.894531 15.945312 C 5.355469 16.601562 4.851562 17.28125 4.382812 17.984375 C 3.910156 18.6875 3.476562 19.414062 3.078125 20.160156 C 2.679688 20.90625 2.316406 21.671875 1.992188 22.453125 C 1.667969 23.238281 1.382812 24.035156 1.136719 24.84375 C 0.890625 25.65625 0.683594 26.476562 0.515625 27.304688 C 0.351562 28.136719 0.226562 28.972656 0.144531 29.816406 C 0.0585938 30.660156 0.015625 31.503906 0.015625 32.351562 L 0.015625 291.101562 C 0.015625 291.949219 0.0585938 292.792969 0.144531 293.636719 C 0.226562 294.480469 0.351562 295.316406 0.515625 296.148438 C 0.683594 296.980469 0.890625 297.800781 1.136719 298.609375 C 1.382812 299.421875 1.667969 300.21875 1.992188 301 C 2.316406 301.78125 2.679688 302.546875 3.078125 303.292969 C 3.476562 304.039062 3.910156 304.765625 4.382812 305.472656 C 4.851562 306.175781 5.355469 306.855469 5.894531 307.507812 C 6.429688 308.164062 7 308.792969 7.597656 309.390625 C 8.195312 309.988281 8.824219 310.558594 9.476562 311.09375 C 10.132812 311.632812 10.8125 312.136719 11.515625 312.609375 C 12.21875 313.078125 12.945312 313.515625 13.691406 313.914062 C 14.4375 314.3125 15.203125 314.675781 15.984375 315 C 16.765625 315.324219 17.5625 315.609375 18.371094 315.855469 C 19.183594 316.101562 20.003906 316.308594 20.832031 316.476562 C 21.664062 316.640625 22.5 316.765625 23.339844 316.851562 C 24.183594 316.933594 25.027344 316.976562 25.875 316.976562 L 139.867188 316.976562 L 136.339844 355.789062 L 116.386719 355.789062 L 116.386719 368.726562 L 258.613281 368.726562 L 258.613281 355.789062 L 238.660156 355.789062 L 235.132812 316.976562 L 349.125 316.976562 C 349.972656 316.976562 350.816406 316.933594 351.660156 316.851562 C 352.5 316.765625 353.335938 316.640625 354.167969 316.476562 C 354.996094 316.308594 355.816406 316.101562 356.628906 315.855469 C 357.4375 315.609375 358.234375 315.324219 359.015625 315 C 359.796875 314.675781 360.5625 314.3125 361.308594 313.914062 C 362.054688 313.515625 362.78125 313.078125 363.484375 312.609375 C 364.1875 312.136719 364.867188 311.632812 365.523438 311.09375 C 366.175781 310.558594 366.804688 309.988281 367.402344 309.390625 C 368 308.792969 368.570312 308.164062 369.105469 307.507812 C 369.644531 306.855469 370.148438 306.175781 370.617188 305.472656 C 371.089844 304.765625 371.523438 304.039062 371.921875 303.292969 C 372.320312 302.546875 372.683594 301.78125 373.007812 301 C 373.332031 300.21875 373.617188 299.421875 373.863281 298.609375 C 374.109375 297.800781 374.316406 296.980469 374.484375 296.148438 C 374.648438 295.316406 374.773438 294.480469 374.855469 293.636719 C 374.941406 292.792969 374.984375 291.949219 374.984375 291.101562 L 374.984375 32.351562 C 374.984375 31.503906 374.941406 30.660156 374.855469 29.816406 C 374.773438 28.972656 374.648438 28.136719 374.484375 27.304688 C 374.316406 26.476562 374.109375 25.65625 373.863281 24.84375 C 373.617188 24.035156 373.332031 23.238281 373.007812 22.453125 C 372.683594 21.671875 372.320312 20.90625 371.921875 20.160156 C 371.523438 19.414062 371.089844 18.6875 370.617188 17.984375 C 370.148438 17.28125 369.644531 16.601562 369.105469 15.945312 C 368.570312 15.289062 368 14.664062 367.402344 14.0625 C 366.804688 13.464844 366.175781 12.898438 365.523438 12.359375 C 364.867188 11.820312 364.1875 11.316406 363.484375 10.847656 C 362.78125 10.375 362.054688 9.941406 361.308594 9.542969 C 360.5625 9.140625 359.796875 8.777344 359.015625 8.453125 C 358.234375 8.128906 357.4375 7.84375 356.628906 7.597656 C 355.816406 7.351562 354.996094 7.144531 354.167969 6.980469 C 353.335938 6.8125 352.5 6.6875 351.660156 6.605469 C 350.816406 6.519531 349.972656 6.476562 349.125 6.476562 Z M 25.875 19.414062 L 349.125 19.414062 C 349.972656 19.414062 350.8125 19.5 351.644531 19.664062 C 352.476562 19.832031 353.285156 20.078125 354.070312 20.402344 C 354.855469 20.730469 355.597656 21.128906 356.304688 21.601562 C 357.011719 22.070312 357.664062 22.609375 358.261719 23.207031 C 358.863281 23.808594 359.398438 24.460938 359.871094 25.167969 C 360.34375 25.875 360.742188 26.621094 361.066406 27.402344 C 361.390625 28.1875 361.636719 28.996094 361.804688 29.828125 C 361.96875 30.660156 362.054688 31.503906 362.054688 32.351562 L 362.054688 58.226562 L 12.945312 58.226562 L 12.945312 32.351562 C 12.945312 31.503906 13.03125 30.660156 13.195312 29.828125 C 13.363281 28.996094 13.609375 28.1875 13.933594 27.402344 C 14.257812 26.621094 14.65625 25.875 15.128906 25.167969 C 15.601562 24.460938 16.136719 23.808594 16.738281 23.207031 C 17.335938 22.609375 17.988281 22.070312 18.695312 21.601562 C 19.402344 21.128906 20.144531 20.730469 20.929688 20.402344 C 21.714844 20.078125 22.523438 19.832031 23.355469 19.664062 C 24.1875 19.5 25.027344 19.414062 25.875 19.414062 Z M 362.054688 71.164062 L 362.054688 252.289062 L 12.945312 252.289062 L 12.945312 71.164062 Z M 225.675781 355.789062 L 149.324219 355.789062 L 152.851562 316.976562 L 222.148438 316.976562 Z M 349.125 304.039062 L 25.875 304.039062 C 25.027344 304.039062 24.1875 303.957031 23.355469 303.789062 C 22.523438 303.621094 21.714844 303.375 20.929688 303.050781 C 20.144531 302.726562 19.402344 302.328125 18.695312 301.855469 C 17.988281 301.382812 17.335938 300.847656 16.738281 300.246094 C 16.136719 299.644531 15.601562 298.992188 15.128906 298.285156 C 14.65625 297.582031 14.257812 296.835938 13.933594 296.050781 C 13.609375 295.265625 13.363281 294.457031 13.195312 293.625 C 13.03125 292.792969 12.945312 291.953125 12.945312 291.101562 L 12.945312 265.226562 L 362.054688 265.226562 L 362.054688 291.101562 C 362.054688 291.953125 361.96875 292.792969 361.804688 293.625 C 361.636719 294.457031 361.390625 295.265625 361.066406 296.050781 C 360.742188 296.835938 360.34375 297.582031 359.871094 298.285156 C 359.398438 298.992188 358.863281 299.644531 358.261719 300.246094 C 357.664062 300.847656 357.011719 301.382812 356.304688 301.855469 C 355.597656 302.328125 354.855469 302.726562 354.070312 303.050781 C 353.285156 303.375 352.476562 303.621094 351.644531 303.789062 C 350.8125 303.957031 349.972656 304.039062 349.125 304.039062 Z M 349.125 304.039062 " fill-opacity="1" fill-rule="nonzero"/></g><path fill="#ffffff" d="M 181.035156 278.164062 L 193.964844 278.164062 L 193.964844 291.101562 L 181.035156 291.101562 Z M 181.035156 278.164062 " fill-opacity="1" fill-rule="nonzero"/><path fill="#ffffff" d="M 32.339844 142.320312 L 45.269531 142.320312 L 45.269531 155.257812 L 32.339844 155.257812 Z M 32.339844 142.320312 " fill-opacity="1" fill-rule="nonzero"/><path fill="#ffffff" d="M 58.199219 142.320312 L 155.175781 142.320312 L 155.175781 155.257812 L 58.199219 155.257812 Z M 58.199219 142.320312 " fill-opacity="1" fill-rule="nonzero"/><path fill="#ffffff" d="M 32.339844 168.195312 L 45.269531 168.195312 L 45.269531 181.132812 L 32.339844 181.132812 Z M 32.339844 168.195312 " fill-opacity="1" fill-rule="nonzero"/><path fill="#ffffff" d="M 58.199219 168.195312 L 226.289062 168.195312 L 226.289062 181.132812 L 58.199219 181.132812 Z M 58.199219 168.195312 " fill-opacity="1" fill-rule="nonzero"/><path fill="#ffffff" d="M 32.339844 194.070312 L 45.269531 194.070312 L 45.269531 207.007812 L 32.339844 207.007812 Z M 32.339844 194.070312 " fill-opacity="1" fill-rule="nonzero"/><path fill="#ffffff" d="M 58.199219 194.070312 L 181.035156 194.070312 L 181.035156 207.007812 L 58.199219 207.007812 Z M 58.199219 194.070312 " fill-opacity="1" fill-rule="nonzero"/><path fill="#ffffff" d="M 32.339844 219.945312 L 45.269531 219.945312 L 45.269531 232.882812 L 32.339844 232.882812 Z M 32.339844 219.945312 " fill-opacity="1" fill-rule="nonzero"/><path fill="#ffffff" d="M 58.199219 219.945312 L 245.683594 219.945312 L 245.683594 232.882812 L 58.199219 232.882812 Z M 58.199219 219.945312 " fill-opacity="1" fill-rule="nonzero"/><path fill="#ffffff" d="M 34.234375 114.550781 L 47.164062 127.488281 L 56.308594 118.339844 L 47.949219 109.976562 L 56.308594 101.613281 L 47.164062 92.464844 L 34.234375 105.402344 C 33.933594 105.703125 33.664062 106.03125 33.429688 106.382812 C 33.195312 106.738281 32.996094 107.109375 32.832031 107.5 C 32.667969 107.894531 32.546875 108.296875 32.464844 108.714844 C 32.382812 109.132812 32.339844 109.550781 32.339844 109.976562 C 32.339844 110.402344 32.382812 110.824219 32.464844 111.238281 C 32.546875 111.65625 32.667969 112.058594 32.832031 112.453125 C 32.996094 112.84375 33.195312 113.21875 33.429688 113.570312 C 33.664062 113.925781 33.933594 114.25 34.234375 114.550781 Z M 34.234375 114.550781 " fill-opacity="1" fill-rule="nonzero"/><path fill="#ffffff" d="M 98.882812 118.339844 L 108.027344 127.488281 L 120.957031 114.550781 C 121.257812 114.25 121.523438 113.925781 121.761719 113.570312 C 121.996094 113.21875 122.195312 112.84375 122.359375 112.453125 C 122.519531 112.058594 122.644531 111.65625 122.726562 111.238281 C 122.808594 110.824219 122.851562 110.402344 122.851562 109.976562 C 122.851562 109.550781 122.808594 109.132812 122.726562 108.714844 C 122.644531 108.296875 122.519531 107.894531 122.359375 107.5 C 122.195312 107.109375 121.996094 106.738281 121.761719 106.382812 C 121.523438 106.03125 121.257812 105.703125 120.957031 105.402344 L 108.027344 92.464844 L 98.882812 101.613281 L 107.242188 109.976562 Z M 98.882812 118.339844 " fill-opacity="1" fill-rule="nonzero"/><path fill="#ffffff" d="M 64.996094 127.335938 L 77.929688 88.527344 L 90.195312 92.617188 L 77.261719 131.429688 Z M 64.996094 127.335938 " fill-opacity="1" fill-rule="nonzero"/><path fill="#ffffff" d="M 239.21875 168.195312 L 278.007812 168.195312 L 278.007812 181.132812 L 239.21875 181.132812 Z M 239.21875 168.195312 " fill-opacity="1" fill-rule="nonzero"/><path fill="#ffffff" d="M 258.613281 219.945312 L 271.542969 219.945312 L 271.542969 232.882812 L 258.613281 232.882812 Z M 258.613281 219.945312 " fill-opacity="1" fill-rule="nonzero"/><path fill="#ffffff" d="M 284.476562 219.945312 L 297.40625 219.945312 L 297.40625 232.882812 L 284.476562 232.882812 Z M 284.476562 219.945312 " fill-opacity="1" fill-rule="nonzero"/><path fill="#ffffff" d="M 168.105469 142.320312 L 181.035156 142.320312 L 181.035156 155.257812 L 168.105469 155.257812 Z M 168.105469 142.320312 " fill-opacity="1" fill-rule="nonzero"/></svg>