<svg xmlns="http://www.w3.org/2000/svg" xmlns:xlink="http://www.w3.org/1999/xlink" width="40" zoomAndPan="magnify" viewBox="0 0 30 30.000001" height="40" preserveAspectRatio="xMidYMid meet" version="1.0"><defs><g/><clipPath id="acfc717751"><path d="M 0.484375 0 L 29.515625 0 L 29.515625 29.03125 L 0.484375 29.03125 Z M 0.484375 0 " clip-rule="nonzero"/></clipPath></defs><g clip-path="url(#acfc717751)"><path fill="#ffffff" d="M 0.484375 0 L 29.515625 0 L 29.515625 36.289062 L 0.484375 36.289062 Z M 0.484375 0 " fill-opacity="1" fill-rule="nonzero"/><path fill="#ffffff" d="M 0.484375 0 L 29.515625 0 L 29.515625 29.03125 L 0.484375 29.03125 Z M 0.484375 0 " fill-opacity="1" fill-rule="nonzero"/><path fill="#ffc107" d="M 0.484375 0 L 29.515625 0 L 29.515625 29.03125 L 0.484375 29.03125 Z M 0.484375 0 " fill-opacity="1" fill-rule="nonzero"/></g><g fill="#000000" fill-opacity="1"><g transform="translate(1.70729, 21.182329)"><g><path d="M 12.179688 0 L 15.300781 0 L 15.300781 -1.738281 L 14.460938 -1.738281 L 14.460938 -6.164062 C 14.460938 -7.828125 13.507812 -8.816406 11.582031 -8.816406 C 10.332031 -8.816406 9.378906 -8.3125 8.6875 -7.695312 C 8.238281 -8.425781 7.417969 -8.816406 6.183594 -8.816406 C 4.988281 -8.816406 4.074219 -8.351562 3.382812 -7.773438 L 3.121094 -8.574219 L 0.542969 -8.574219 L 0.542969 -6.835938 L 1.382812 -6.835938 L 1.382812 -1.738281 L 0.542969 -1.738281 L 0.542969 0 L 4.519531 0 L 4.519531 -1.738281 L 3.660156 -1.738281 L 3.660156 -6.296875 C 4.109375 -6.726562 4.671875 -7.082031 5.324219 -7.082031 C 6.332031 -7.082031 6.78125 -6.5 6.78125 -5.640625 L 6.78125 0 L 9.921875 0 L 9.921875 -1.738281 L 9.0625 -1.738281 L 9.0625 -6.296875 C 9.507812 -6.726562 10.070312 -7.082031 10.722656 -7.082031 C 11.734375 -7.082031 12.179688 -6.5 12.179688 -5.640625 Z M 12.179688 0 "/></g></g></g><g fill="#000000" fill-opacity="1"><g transform="translate(17.527735, 21.182329)"><g><path d="M 7.117188 0 L 10.257812 0 L 10.257812 -1.738281 L 9.398438 -1.738281 L 9.398438 -6.164062 C 9.398438 -7.828125 8.445312 -8.816406 6.484375 -8.816406 C 5.285156 -8.816406 4.351562 -8.386719 3.660156 -7.863281 L 3.660156 -13.710938 L 0.542969 -13.710938 L 0.542969 -11.976562 L 1.382812 -11.976562 L 1.382812 -1.738281 L 0.542969 -1.738281 L 0.542969 0 L 4.519531 0 L 4.519531 -1.738281 L 3.660156 -1.738281 L 3.660156 -6.128906 C 4.148438 -6.632812 4.820312 -7.082031 5.625 -7.082031 C 6.667969 -7.082031 7.117188 -6.5 7.117188 -5.640625 Z M 7.117188 0 "/></g></g></g></svg>