<svg xmlns="http://www.w3.org/2000/svg" xmlns:xlink="http://www.w3.org/1999/xlink" width="40" zoomAndPan="magnify" viewBox="0 0 30 30.000001" height="40" preserveAspectRatio="xMidYMid meet" version="1.0"><defs><clipPath id="970383f619"><path d="M 0.484375 24 L 29.347656 24 L 29.347656 27.46875 L 0.484375 27.46875 Z M 0.484375 24 " clip-rule="nonzero"/></clipPath></defs><g clip-path="url(#970383f619)"><path fill="#6b184e" d="M 29.347656 26.234375 C 29.347656 26.3125 29.257812 26.394531 29.070312 26.472656 C 28.882812 26.554688 28.609375 26.628906 28.246094 26.707031 C 27.878906 26.78125 27.433594 26.851562 26.902344 26.917969 C 26.375 26.988281 25.773438 27.050781 25.097656 27.105469 C 24.425781 27.164062 23.691406 27.214844 22.898438 27.261719 C 22.105469 27.304688 21.269531 27.34375 20.386719 27.375 C 19.507812 27.40625 18.601562 27.429688 17.664062 27.445312 C 16.730469 27.460938 15.785156 27.46875 14.832031 27.46875 C 13.878906 27.46875 12.9375 27.460938 12 27.445312 C 11.066406 27.429688 10.160156 27.40625 9.277344 27.375 C 8.398438 27.34375 7.5625 27.304688 6.769531 27.261719 C 5.976562 27.214844 5.242188 27.164062 4.570312 27.105469 C 3.894531 27.050781 3.292969 26.988281 2.761719 26.917969 C 2.234375 26.851562 1.785156 26.78125 1.421875 26.707031 C 1.058594 26.628906 0.78125 26.554688 0.597656 26.472656 C 0.410156 26.394531 0.316406 26.3125 0.316406 26.234375 C 0.316406 26.152344 0.410156 26.070312 0.597656 25.992188 C 0.78125 25.914062 1.058594 25.835938 1.421875 25.761719 C 1.785156 25.683594 2.234375 25.613281 2.761719 25.546875 C 3.292969 25.480469 3.894531 25.417969 4.570312 25.359375 C 5.242188 25.300781 5.976562 25.25 6.769531 25.207031 C 7.5625 25.160156 8.398438 25.121094 9.277344 25.089844 C 10.160156 25.058594 11.066406 25.035156 12 25.019531 C 12.9375 25.003906 13.878906 24.996094 14.832031 24.996094 C 15.785156 24.996094 16.730469 25.003906 17.664062 25.019531 C 18.601562 25.035156 19.507812 25.058594 20.386719 25.089844 C 21.269531 25.121094 22.105469 25.160156 22.898438 25.207031 C 23.691406 25.25 24.425781 25.300781 25.097656 25.359375 C 25.773438 25.417969 26.375 25.480469 26.902344 25.546875 C 27.433594 25.613281 27.878906 25.683594 28.246094 25.761719 C 28.609375 25.835938 28.882812 25.914062 29.070312 25.992188 C 29.257812 26.070312 29.347656 26.152344 29.347656 26.234375 Z M 29.347656 26.234375 " fill-opacity="0.298" fill-rule="nonzero"/></g><path fill="#6b184e" d="M 2.480469 13.785156 C 2.519531 13.761719 2.519531 13.707031 2.480469 13.683594 C 2.425781 13.652344 2.371094 13.628906 2.316406 13.613281 C 2.285156 13.601562 2.253906 13.597656 2.222656 13.589844 C 2.214844 13.558594 2.210938 13.527344 2.199219 13.496094 C 2.183594 13.441406 2.164062 13.386719 2.128906 13.332031 C 2.109375 13.292969 2.050781 13.292969 2.027344 13.332031 C 1.996094 13.386719 1.976562 13.441406 1.957031 13.496094 C 1.949219 13.527344 1.941406 13.558594 1.9375 13.589844 C 1.90625 13.597656 1.871094 13.601562 1.839844 13.613281 C 1.789062 13.628906 1.730469 13.652344 1.675781 13.683594 C 1.640625 13.707031 1.640625 13.761719 1.675781 13.785156 C 1.730469 13.816406 1.789062 13.835938 1.839844 13.855469 C 1.875 13.863281 1.90625 13.871094 1.9375 13.875 C 1.941406 13.90625 1.949219 13.9375 1.957031 13.96875 C 1.976562 14.023438 1.996094 14.078125 2.027344 14.132812 C 2.050781 14.171875 2.105469 14.171875 2.128906 14.132812 C 2.164062 14.078125 2.183594 14.023438 2.199219 13.96875 C 2.210938 13.9375 2.214844 13.90625 2.222656 13.875 C 2.253906 13.871094 2.285156 13.863281 2.316406 13.855469 C 2.371094 13.835938 2.425781 13.816406 2.480469 13.785156 Z M 2.480469 13.785156 " fill-opacity="1" fill-rule="nonzero"/><path fill="#f6af40" d="M 18.296875 14.355469 C 17.328125 16.625 15.027344 16.09375 15.78125 14.421875 C 16.175781 13.460938 15.878906 12.964844 15.253906 12.582031 C 15.15625 12.523438 15.050781 12.464844 14.9375 12.410156 C 14.066406 11.980469 12.800781 11.632812 11.769531 10.742188 C 7.316406 6.796875 12.957031 1.339844 16.339844 3.820312 C 16.75 4.121094 17.058594 4.542969 17.191406 5.03125 C 17.691406 6.894531 15.253906 7.695312 14.847656 5.542969 C 12.859375 5.519531 11.984375 8.097656 14.007812 9.117188 C 15.0625 9.582031 16.738281 10.140625 17.761719 11.097656 C 18.585938 11.871094 18.984375 12.902344 18.296875 14.355469 Z M 18.296875 14.355469 " fill-opacity="1" fill-rule="nonzero"/><path fill="#ffffff" d="M 16.320312 4.050781 C 16.320312 4.050781 14.394531 3.445312 13.53125 6 C 13.53125 6 14.265625 5.226562 14.878906 5.707031 C 14.878906 5.707031 15.332031 7.570312 16.652344 6.546875 C 16.652344 6.546875 18.007812 5.449219 16.320312 4.050781 Z M 16.320312 4.050781 " fill-opacity="1" fill-rule="nonzero"/><path fill="#ffffff" d="M 17.011719 4.582031 C 16.90625 4.464844 16.789062 4.363281 16.664062 4.269531 C 15.648438 3.527344 14.433594 3.496094 13.351562 3.921875 C 13.265625 4.3125 12.371094 4.875 12.050781 4.703125 C 10.59375 5.933594 9.828125 8.042969 11.078125 10.019531 C 7.984375 6.175781 13.160156 1.488281 16.339844 3.820312 C 16.617188 4.023438 16.847656 4.28125 17.011719 4.582031 Z M 17.011719 4.582031 " fill-opacity="0.549" fill-rule="nonzero"/><path fill="#6b184e" d="M 13.675781 8.917969 C 11.488281 7.96875 12.101562 6.023438 13.140625 5.367188 C 14.117188 4.753906 15.332031 4.964844 15.449219 5.542969 C 15.457031 5.585938 14.792969 5.511719 14.820312 5.542969 C 13.53125 5.542969 12.050781 7.113281 13.675781 8.917969 Z M 13.675781 8.917969 " fill-opacity="0.2471" fill-rule="nonzero"/><path fill="#6b184e" d="M 17.191406 5.03125 C 17.6875 6.878906 15.292969 7.679688 14.859375 5.589844 C 15.292969 5.53125 17.105469 6.558594 16.84375 4.320312 C 17 4.535156 17.121094 4.773438 17.191406 5.03125 Z M 17.191406 5.03125 " fill-opacity="0.2471" fill-rule="nonzero"/><path fill="#f8bf71" d="M 14.859375 5.59375 C 14.847656 5.578125 14.832031 5.5625 14.820312 5.542969 C 14.828125 5.542969 14.839844 5.542969 14.847656 5.542969 C 14.851562 5.558594 14.855469 5.574219 14.859375 5.59375 Z M 14.859375 5.59375 " fill-opacity="1" fill-rule="nonzero"/><path fill="#6b184e" d="M 16.5 16.078125 C 16.132812 16.078125 15.8125 15.929688 15.617188 15.664062 C 15.371094 15.324219 15.363281 14.855469 15.589844 14.34375 C 16.082031 13.148438 15.4375 12.816406 14.050781 12.242188 C 13.28125 11.921875 12.40625 11.558594 11.636719 10.894531 C 9.203125 8.738281 9.734375 6.25 10.933594 4.773438 C 11.601562 3.953125 12.535156 3.34375 13.507812 3.105469 C 14.574219 2.84375 15.621094 3.039062 16.460938 3.65625 C 16.921875 3.992188 17.25 4.460938 17.390625 4.976562 C 17.570312 5.640625 17.425781 6.253906 17 6.660156 C 16.640625 7 16.136719 7.121094 15.691406 6.976562 C 15.398438 6.882812 14.898438 6.597656 14.6875 5.75 C 13.804688 5.808594 13.261719 6.429688 13.109375 7.046875 C 12.964844 7.644531 13.148438 8.449219 14.097656 8.929688 C 14.296875 9.019531 14.519531 9.109375 14.757812 9.207031 C 16.175781 9.789062 18.117188 10.585938 18.6875 12.066406 C 18.964844 12.773438 18.894531 13.574219 18.484375 14.4375 C 18.085938 15.375 17.402344 15.984375 16.660156 16.066406 C 16.605469 16.074219 16.554688 16.078125 16.5 16.078125 Z M 14.425781 3.394531 C 13.214844 3.394531 12.019531 4.085938 11.25 5.03125 C 10.167969 6.367188 9.6875 8.625 11.90625 10.589844 C 12.625 11.207031 13.464844 11.558594 14.210938 11.867188 C 14.878906 12.144531 15.453125 12.382812 15.808594 12.761719 C 16.21875 13.195312 16.269531 13.765625 15.96875 14.503906 C 15.96875 14.503906 15.96875 14.507812 15.964844 14.507812 C 15.796875 14.882812 15.789062 15.207031 15.949219 15.425781 C 16.085938 15.609375 16.324219 15.695312 16.613281 15.660156 C 17.207031 15.59375 17.765625 15.074219 18.109375 14.277344 C 18.109375 14.273438 18.109375 14.273438 18.109375 14.269531 C 18.476562 13.496094 18.539062 12.824219 18.304688 12.214844 C 17.792969 10.898438 15.945312 10.140625 14.597656 9.585938 C 14.359375 9.488281 14.128906 9.394531 13.921875 9.304688 C 13.921875 9.304688 13.917969 9.300781 13.914062 9.300781 C 12.746094 8.714844 12.523438 7.703125 12.707031 6.949219 C 12.941406 6 13.808594 5.339844 14.824219 5.339844 C 14.832031 5.339844 14.84375 5.339844 14.851562 5.339844 C 14.949219 5.339844 15.03125 5.410156 15.050781 5.507812 C 15.15625 6.078125 15.429688 6.464844 15.8125 6.589844 C 16.117188 6.6875 16.460938 6.601562 16.710938 6.363281 C 17.027344 6.0625 17.128906 5.597656 16.992188 5.085938 C 16.875 4.65625 16.601562 4.269531 16.21875 3.988281 C 15.652344 3.570312 15.039062 3.394531 14.425781 3.394531 Z M 14.425781 3.394531 " fill-opacity="1" fill-rule="nonzero"/><path fill="#6b184e" d="M 15.398438 5.816406 C 15.382812 5.816406 15.367188 5.816406 15.351562 5.8125 C 15.183594 5.769531 15.011719 5.75 14.847656 5.746094 C 14.734375 5.746094 14.644531 5.652344 14.644531 5.539062 C 14.648438 5.425781 14.738281 5.339844 14.851562 5.339844 C 15.046875 5.339844 15.246094 5.367188 15.445312 5.414062 C 15.558594 5.441406 15.625 5.550781 15.597656 5.660156 C 15.574219 5.753906 15.492188 5.816406 15.398438 5.816406 Z M 15.398438 5.816406 " fill-opacity="1" fill-rule="nonzero"/><path fill="#6b184e" d="M 18.296875 14.355469 C 17.328125 16.625 15.027344 16.09375 15.78125 14.421875 C 16.175781 13.460938 15.878906 12.964844 15.253906 12.582031 C 16.542969 13.160156 18.191406 12.503906 17.761719 11.097656 C 18.585938 11.871094 18.984375 12.902344 18.296875 14.355469 Z M 18.296875 14.355469 " fill-opacity="0.2471" fill-rule="nonzero"/><path fill="#ffffff" d="M 16.785156 11.765625 C 16.617188 12.109375 16.15625 11.683594 15.484375 11.363281 C 14.816406 11.042969 14.195312 10.945312 14.363281 10.601562 C 14.527344 10.257812 15.207031 10.238281 15.875 10.558594 C 16.542969 10.878906 16.949219 11.417969 16.785156 11.765625 Z M 16.785156 11.765625 " fill-opacity="0.2471" fill-rule="nonzero"/><path fill="#ed3469" d="M 7.636719 16.15625 C 7.832031 16.351562 7.984375 16.578125 8.09375 16.835938 C 8.199219 17.09375 8.253906 17.359375 8.253906 17.636719 C 8.253906 17.917969 8.199219 18.183594 8.09375 18.441406 C 7.984375 18.699219 7.832031 18.925781 7.636719 19.121094 C 7.4375 19.316406 7.210938 19.46875 6.953125 19.578125 C 6.695312 19.683594 6.429688 19.734375 6.148438 19.734375 C 5.871094 19.734375 5.601562 19.683594 5.34375 19.578125 C 5.085938 19.46875 4.859375 19.316406 4.660156 19.121094 C 4.464844 18.925781 4.3125 18.699219 4.207031 18.441406 C 4.097656 18.183594 4.046875 17.917969 4.046875 17.636719 C 4.046875 17.359375 4.097656 17.09375 4.207031 16.835938 C 4.3125 16.578125 4.464844 16.351562 4.660156 16.15625 C 4.859375 15.957031 5.085938 15.808594 5.34375 15.699219 C 5.601562 15.59375 5.871094 15.542969 6.148438 15.542969 C 6.429688 15.542969 6.695312 15.59375 6.953125 15.699219 C 7.210938 15.808594 7.4375 15.957031 7.636719 16.15625 Z M 7.636719 16.15625 " fill-opacity="1" fill-rule="nonzero"/><path fill="#ffffff" d="M 8.070312 16.78125 C 7.6875 16.265625 7.074219 15.933594 6.382812 15.933594 C 5.21875 15.933594 4.277344 16.871094 4.277344 18.03125 C 4.277344 18.335938 4.34375 18.625 4.460938 18.886719 C 4.199219 18.539062 4.046875 18.105469 4.046875 17.636719 C 4.046875 16.480469 4.988281 15.539062 6.148438 15.539062 C 7.003906 15.539062 7.742188 16.050781 8.070312 16.78125 Z M 8.070312 16.78125 " fill-opacity="0.6471" fill-rule="nonzero"/><path fill="#6b184e" d="M 6.148438 19.929688 C 4.882812 19.929688 3.851562 18.902344 3.851562 17.640625 C 3.851562 16.375 4.882812 15.347656 6.148438 15.347656 C 7.417969 15.347656 8.445312 16.375 8.445312 17.640625 C 8.445312 18.902344 7.417969 19.929688 6.148438 19.929688 Z M 6.148438 15.734375 C 5.097656 15.734375 4.242188 16.589844 4.242188 17.636719 C 4.242188 18.6875 5.097656 19.542969 6.148438 19.542969 C 7.203125 19.542969 8.058594 18.6875 8.058594 17.636719 C 8.058594 16.589844 7.203125 15.734375 6.148438 15.734375 Z M 6.148438 15.734375 " fill-opacity="1" fill-rule="nonzero"/><path fill="#ed3469" d="M 16.875 12.179688 C 17.074219 12.375 17.222656 12.605469 17.332031 12.859375 C 17.4375 13.117188 17.492188 13.386719 17.492188 13.664062 C 17.492188 13.941406 17.4375 14.207031 17.332031 14.464844 C 17.222656 14.722656 17.074219 14.949219 16.875 15.144531 C 16.679688 15.34375 16.449219 15.496094 16.191406 15.601562 C 15.933594 15.707031 15.667969 15.761719 15.386719 15.761719 C 15.109375 15.761719 14.839844 15.707031 14.582031 15.601562 C 14.324219 15.496094 14.097656 15.34375 13.902344 15.144531 C 13.703125 14.949219 13.550781 14.722656 13.445312 14.464844 C 13.339844 14.210938 13.285156 13.941406 13.285156 13.664062 C 13.285156 13.386719 13.339844 13.117188 13.445312 12.859375 C 13.550781 12.605469 13.703125 12.378906 13.902344 12.179688 C 14.097656 11.984375 14.324219 11.832031 14.582031 11.726562 C 14.839844 11.621094 15.109375 11.566406 15.386719 11.566406 C 15.667969 11.566406 15.933594 11.621094 16.191406 11.726562 C 16.449219 11.832031 16.679688 11.984375 16.875 12.179688 Z M 16.875 12.179688 " fill-opacity="1" fill-rule="nonzero"/><path fill="#ffffff" d="M 17.375 14.351562 C 17.386719 14.273438 17.390625 14.195312 17.390625 14.113281 C 17.390625 12.957031 16.449219 12.015625 15.285156 12.015625 C 14.367188 12.015625 13.585938 12.605469 13.300781 13.425781 C 13.417969 12.378906 14.308594 11.566406 15.390625 11.566406 C 16.550781 11.566406 17.492188 12.503906 17.492188 13.664062 C 17.492188 13.90625 17.449219 14.136719 17.375 14.351562 Z M 17.375 14.351562 " fill-opacity="0.6471" fill-rule="nonzero"/><path fill="#6b184e" d="M 15.390625 15.957031 C 14.121094 15.957031 13.089844 14.929688 13.089844 13.664062 C 13.089844 12.402344 14.121094 11.375 15.390625 11.375 C 16.65625 11.375 17.6875 12.402344 17.6875 13.664062 C 17.6875 14.929688 16.65625 15.957031 15.390625 15.957031 Z M 15.390625 11.757812 C 14.335938 11.757812 13.480469 12.613281 13.480469 13.664062 C 13.480469 14.714844 14.335938 15.566406 15.390625 15.566406 C 16.441406 15.566406 17.296875 14.714844 17.296875 13.664062 C 17.296875 12.613281 16.441406 11.757812 15.390625 11.757812 Z M 15.390625 11.757812 " fill-opacity="1" fill-rule="nonzero"/><path fill="#ed3469" d="M 26.910156 19.738281 C 26.910156 20.015625 26.859375 20.28125 26.75 20.539062 C 26.644531 20.796875 26.492188 21.023438 26.296875 21.21875 C 26.097656 21.417969 25.871094 21.566406 25.613281 21.675781 C 25.355469 21.78125 25.085938 21.832031 24.808594 21.832031 C 24.53125 21.832031 24.261719 21.78125 24.003906 21.675781 C 23.746094 21.566406 23.519531 21.417969 23.320312 21.21875 C 23.125 21.023438 22.972656 20.796875 22.863281 20.539062 C 22.757812 20.28125 22.707031 20.015625 22.707031 19.738281 C 22.707031 19.457031 22.757812 19.191406 22.863281 18.933594 C 22.972656 18.675781 23.125 18.449219 23.320312 18.253906 C 23.519531 18.058594 23.746094 17.90625 24.003906 17.800781 C 24.261719 17.691406 24.53125 17.640625 24.808594 17.640625 C 25.085938 17.640625 25.355469 17.691406 25.613281 17.800781 C 25.871094 17.90625 26.097656 18.058594 26.296875 18.253906 C 26.492188 18.449219 26.644531 18.675781 26.75 18.933594 C 26.859375 19.191406 26.910156 19.457031 26.910156 19.738281 Z M 26.910156 19.738281 " fill-opacity="1" fill-rule="nonzero"/><path fill="#ffffff" d="M 26.910156 19.738281 C 26.910156 20.625 26.359375 21.382812 25.578125 21.691406 C 26.097656 21.308594 26.433594 20.695312 26.433594 20 C 26.433594 18.84375 25.492188 17.902344 24.328125 17.902344 C 24.058594 17.902344 23.800781 17.953125 23.5625 18.046875 C 23.910156 17.792969 24.34375 17.640625 24.808594 17.640625 C 25.96875 17.636719 26.910156 18.578125 26.910156 19.738281 Z M 26.910156 19.738281 " fill-opacity="0.6471" fill-rule="nonzero"/><path fill="#6b184e" d="M 24.808594 22.027344 C 23.542969 22.027344 22.511719 21 22.511719 19.738281 C 22.511719 18.472656 23.542969 17.445312 24.808594 17.445312 C 26.074219 17.445312 27.105469 18.472656 27.105469 19.738281 C 27.105469 21 26.074219 22.027344 24.808594 22.027344 Z M 24.808594 17.832031 C 23.753906 17.832031 22.898438 18.6875 22.898438 19.734375 C 22.898438 20.785156 23.753906 21.640625 24.808594 21.640625 C 25.859375 21.640625 26.71875 20.785156 26.71875 19.734375 C 26.71875 18.6875 25.859375 17.832031 24.808594 17.832031 Z M 24.808594 17.832031 " fill-opacity="1" fill-rule="nonzero"/><path fill="#e36836" d="M 11.457031 15.695312 L 10.550781 15.984375 C 10.28125 16.070312 9.988281 15.917969 9.902344 15.648438 L 9.140625 13.246094 C 9.054688 12.976562 9.207031 12.6875 9.476562 12.601562 L 10.386719 12.316406 C 10.65625 12.230469 10.949219 12.378906 11.03125 12.652344 L 11.792969 15.050781 C 11.878906 15.320312 11.730469 15.613281 11.457031 15.695312 Z M 11.457031 15.695312 " fill-opacity="1" fill-rule="nonzero"/><path fill="#ffffff" d="M 11.816406 15.25 L 11.121094 13.054688 C 11.035156 12.78125 10.746094 12.632812 10.472656 12.71875 L 9.566406 13.003906 C 9.359375 13.070312 9.222656 13.25 9.207031 13.453125 L 9.140625 13.246094 C 9.054688 12.976562 9.207031 12.6875 9.476562 12.601562 L 10.386719 12.316406 C 10.65625 12.230469 10.949219 12.378906 11.03125 12.652344 L 11.796875 15.050781 C 11.816406 15.117188 11.824219 15.1875 11.816406 15.25 Z M 11.816406 15.25 " fill-opacity="0.6471" fill-rule="nonzero"/><path fill="#6b184e" d="M 10.398438 16.199219 C 10.09375 16.199219 9.816406 16.007812 9.71875 15.707031 L 8.957031 13.304688 C 8.902344 13.125 8.917969 12.933594 9.003906 12.765625 C 9.09375 12.597656 9.238281 12.472656 9.421875 12.417969 L 10.328125 12.128906 C 10.507812 12.074219 10.699219 12.089844 10.871094 12.175781 C 11.039062 12.265625 11.160156 12.410156 11.21875 12.59375 L 11.980469 14.992188 C 12.039062 15.171875 12.019531 15.363281 11.933594 15.535156 C 11.847656 15.699219 11.699219 15.824219 11.515625 15.882812 L 11.460938 15.695312 L 11.515625 15.882812 L 10.609375 16.167969 C 10.539062 16.191406 10.46875 16.199219 10.398438 16.199219 Z M 10.542969 12.484375 C 10.507812 12.484375 10.476562 12.488281 10.445312 12.5 L 9.539062 12.785156 C 9.457031 12.8125 9.390625 12.867188 9.347656 12.945312 C 9.308594 13.019531 9.300781 13.105469 9.328125 13.1875 L 10.089844 15.589844 C 10.140625 15.757812 10.324219 15.851562 10.492188 15.796875 L 11.398438 15.511719 C 11.480469 15.488281 11.546875 15.429688 11.589844 15.355469 C 11.628906 15.277344 11.636719 15.191406 11.609375 15.109375 L 10.847656 12.710938 C 10.820312 12.628906 10.765625 12.5625 10.691406 12.523438 C 10.644531 12.496094 10.59375 12.484375 10.542969 12.484375 Z M 10.542969 12.484375 " fill-opacity="1" fill-rule="nonzero"/><path fill="#d76531" d="M 22.554688 13.894531 L 22.8125 14.804688 C 22.890625 15.078125 22.730469 15.363281 22.457031 15.441406 L 20.027344 16.125 C 19.753906 16.203125 19.46875 16.042969 19.390625 15.769531 L 19.132812 14.855469 C 19.054688 14.585938 19.210938 14.300781 19.488281 14.222656 L 21.917969 13.539062 C 22.191406 13.460938 22.476562 13.621094 22.554688 13.894531 Z M 22.554688 13.894531 " fill-opacity="1" fill-rule="nonzero"/><path fill="#ffffff" d="M 22.667969 14.296875 C 22.589844 14.023438 22.304688 13.863281 22.03125 13.941406 L 19.601562 14.625 C 19.324219 14.703125 19.167969 14.988281 19.246094 15.261719 L 19.128906 14.855469 C 19.050781 14.582031 19.210938 14.300781 19.484375 14.222656 L 21.914062 13.539062 C 22.191406 13.460938 22.476562 13.621094 22.550781 13.894531 Z M 22.667969 14.296875 " fill-opacity="0.6471" fill-rule="nonzero"/><path fill="#6b184e" d="M 19.882812 16.375 C 19.757812 16.375 19.632812 16.34375 19.519531 16.28125 C 19.347656 16.183594 19.222656 16.027344 19.167969 15.835938 L 18.910156 14.921875 C 18.796875 14.527344 19.027344 14.113281 19.425781 14 L 21.855469 13.316406 C 22.046875 13.261719 22.246094 13.285156 22.421875 13.382812 C 22.597656 13.480469 22.722656 13.640625 22.777344 13.832031 L 23.035156 14.742188 C 23.144531 15.140625 22.914062 15.550781 22.519531 15.664062 L 20.089844 16.347656 C 20.019531 16.367188 19.953125 16.375 19.882812 16.375 Z M 22.054688 13.75 C 22.03125 13.75 22.003906 13.753906 21.980469 13.757812 L 19.550781 14.445312 C 19.476562 14.464844 19.414062 14.511719 19.378906 14.578125 C 19.339844 14.644531 19.332031 14.722656 19.351562 14.792969 L 19.613281 15.707031 C 19.632812 15.78125 19.679688 15.839844 19.746094 15.878906 C 19.8125 15.914062 19.890625 15.925781 19.964844 15.902344 L 22.390625 15.21875 C 22.464844 15.199219 22.527344 15.148438 22.5625 15.082031 C 22.601562 15.019531 22.609375 14.941406 22.589844 14.867188 L 22.332031 13.953125 C 22.296875 13.832031 22.179688 13.75 22.054688 13.75 Z M 22.054688 13.75 " fill-opacity="1" fill-rule="nonzero"/><path fill="#ffca28" d="M 6.042969 21.367188 L 4.214844 21.621094 C 3.871094 21.667969 3.550781 21.429688 3.503906 21.085938 L 3.1875 18.8125 C 3.140625 18.472656 3.378906 18.15625 3.722656 18.105469 L 5.550781 17.851562 C 5.894531 17.804688 6.214844 18.042969 6.261719 18.386719 L 6.578125 20.660156 C 6.625 21 6.386719 21.316406 6.042969 21.367188 Z M 6.042969 21.367188 " fill-opacity="1" fill-rule="nonzero"/><path fill="#ffffff" d="M 6.320312 18.824219 C 6.273438 18.480469 5.957031 18.242188 5.613281 18.289062 L 3.785156 18.542969 C 3.441406 18.59375 3.203125 18.90625 3.246094 19.246094 L 3.1875 18.816406 C 3.140625 18.472656 3.378906 18.15625 3.722656 18.105469 L 5.554688 17.851562 C 5.894531 17.804688 6.214844 18.042969 6.261719 18.386719 Z M 6.320312 18.824219 " fill-opacity="0.6471" fill-rule="nonzero"/><path fill="#6b184e" d="M 4.125 21.820312 C 3.949219 21.820312 3.777344 21.761719 3.632812 21.65625 C 3.457031 21.523438 3.34375 21.332031 3.3125 21.113281 L 2.992188 18.84375 C 2.929688 18.394531 3.246094 17.976562 3.695312 17.917969 L 5.523438 17.660156 C 5.972656 17.597656 6.390625 17.914062 6.453125 18.359375 L 6.769531 20.632812 C 6.832031 21.082031 6.519531 21.496094 6.070312 21.558594 L 4.238281 21.8125 C 4.203125 21.816406 4.164062 21.820312 4.125 21.820312 Z M 5.640625 18.039062 C 5.617188 18.039062 5.597656 18.042969 5.578125 18.042969 L 3.75 18.296875 C 3.511719 18.332031 3.347656 18.550781 3.378906 18.789062 L 3.699219 21.058594 C 3.730469 21.296875 3.949219 21.460938 4.1875 21.429688 L 6.019531 21.171875 C 6.253906 21.140625 6.421875 20.921875 6.386719 20.683594 L 6.070312 18.414062 C 6.039062 18.195312 5.851562 18.039062 5.640625 18.039062 Z M 5.640625 18.039062 " fill-opacity="1" fill-rule="nonzero"/><path fill="#ffca28" d="M 12.765625 17.886719 L 10.578125 16.277344 C 10.167969 15.976562 10.082031 15.398438 10.386719 14.988281 L 12.398438 12.273438 C 12.703125 11.867188 13.28125 11.777344 13.691406 12.082031 L 15.875 13.691406 C 16.285156 13.996094 16.375 14.574219 16.070312 14.980469 L 14.054688 17.695312 C 13.753906 18.105469 13.175781 18.191406 12.765625 17.886719 Z M 12.765625 17.886719 " fill-opacity="1" fill-rule="nonzero"/><path fill="#ffffff" d="M 14.074219 12.367188 C 13.664062 12.066406 13.085938 12.152344 12.785156 12.5625 L 10.773438 15.273438 C 10.46875 15.683594 10.554688 16.261719 10.96875 16.5625 L 10.578125 16.277344 C 10.167969 15.976562 10.082031 15.398438 10.386719 14.988281 L 12.398438 12.277344 C 12.699219 11.867188 13.28125 11.78125 13.691406 12.082031 Z M 14.074219 12.367188 " fill-opacity="0.6471" fill-rule="nonzero"/><path fill="#6b184e" d="M 13.3125 18.261719 C 13.082031 18.261719 12.847656 18.191406 12.648438 18.042969 L 10.464844 16.433594 C 10.222656 16.257812 10.066406 15.996094 10.023438 15.703125 C 9.976562 15.40625 10.050781 15.113281 10.230469 14.871094 L 12.242188 12.160156 C 12.609375 11.664062 13.308594 11.558594 13.804688 11.925781 L 15.992188 13.535156 C 16.230469 13.714844 16.386719 13.972656 16.429688 14.269531 C 16.476562 14.5625 16.402344 14.855469 16.226562 15.097656 L 14.214844 17.8125 C 13.992188 18.105469 13.65625 18.261719 13.3125 18.261719 Z M 12.878906 17.730469 C 13.203125 17.972656 13.660156 17.902344 13.902344 17.578125 L 15.914062 14.867188 C 16.027344 14.710938 16.078125 14.515625 16.046875 14.324219 C 16.019531 14.132812 15.917969 13.960938 15.757812 13.847656 L 13.574219 12.238281 C 13.25 11.996094 12.792969 12.066406 12.554688 12.390625 L 10.542969 15.101562 C 10.425781 15.257812 10.378906 15.453125 10.40625 15.644531 C 10.4375 15.835938 10.539062 16.007812 10.695312 16.121094 Z M 12.878906 17.730469 " fill-opacity="1" fill-rule="nonzero"/><path fill="#efc96b" d="M 20.980469 21.414062 L 18.316406 20.988281 C 17.804688 20.90625 17.460938 20.425781 17.542969 19.917969 L 18.074219 16.605469 C 18.15625 16.097656 18.632812 15.753906 19.144531 15.835938 L 21.808594 16.261719 C 22.316406 16.339844 22.664062 16.820312 22.582031 17.328125 L 22.050781 20.640625 C 21.96875 21.148438 21.488281 21.492188 20.980469 21.414062 Z M 20.980469 21.414062 " fill-opacity="1" fill-rule="nonzero"/><path fill="#ffffff" d="M 21.925781 20.972656 L 22.4375 17.796875 C 22.519531 17.289062 22.171875 16.808594 21.664062 16.730469 L 19 16.304688 C 18.613281 16.242188 18.242188 16.425781 18.050781 16.742188 L 18.074219 16.605469 C 18.15625 16.097656 18.632812 15.753906 19.144531 15.835938 L 21.808594 16.261719 C 22.316406 16.339844 22.664062 16.820312 22.582031 17.328125 L 22.046875 20.640625 C 22.03125 20.761719 21.988281 20.875 21.925781 20.972656 Z M 21.925781 20.972656 " fill-opacity="0.6471" fill-rule="nonzero"/><path fill="#6b184e" d="M 21.128906 21.65625 C 21.066406 21.65625 21.003906 21.648438 20.941406 21.640625 L 18.28125 21.214844 C 17.644531 21.113281 17.210938 20.515625 17.3125 19.882812 L 17.84375 16.570312 C 17.949219 15.9375 18.546875 15.507812 19.179688 15.605469 L 21.84375 16.03125 C 22.152344 16.082031 22.421875 16.246094 22.601562 16.5 C 22.785156 16.75 22.859375 17.058594 22.808594 17.363281 L 22.277344 20.675781 C 22.1875 21.246094 21.691406 21.65625 21.128906 21.65625 Z M 21.015625 21.183594 C 21.398438 21.246094 21.761719 20.984375 21.824219 20.601562 L 22.355469 17.289062 C 22.382812 17.105469 22.339844 16.917969 22.230469 16.769531 C 22.121094 16.617188 21.957031 16.515625 21.773438 16.488281 L 19.109375 16.0625 C 18.726562 16 18.363281 16.261719 18.300781 16.644531 L 17.769531 19.957031 C 17.710938 20.335938 17.96875 20.699219 18.355469 20.757812 Z M 21.015625 21.183594 " fill-opacity="1" fill-rule="nonzero"/><path fill="#e36836" d="M 6.414062 22.222656 L 5.492188 23.816406 C 5.316406 24.117188 4.933594 24.222656 4.632812 24.046875 L 2.640625 22.902344 C 2.339844 22.726562 2.238281 22.34375 2.410156 22.046875 L 3.335938 20.449219 C 3.507812 20.148438 3.894531 20.046875 4.195312 20.222656 L 6.183594 21.367188 C 6.484375 21.539062 6.589844 21.925781 6.414062 22.222656 Z M 6.414062 22.222656 " fill-opacity="1" fill-rule="nonzero"/><path fill="#ffffff" d="M 6.425781 21.613281 L 4.550781 20.535156 C 4.25 20.363281 3.867188 20.464844 3.695312 20.765625 L 2.769531 22.359375 C 2.660156 22.554688 2.660156 22.785156 2.761719 22.96875 L 2.640625 22.902344 C 2.339844 22.726562 2.238281 22.34375 2.410156 22.046875 L 3.335938 20.449219 C 3.507812 20.152344 3.890625 20.046875 4.195312 20.222656 L 6.1875 21.367188 C 6.289062 21.425781 6.371094 21.515625 6.425781 21.613281 Z M 6.425781 21.613281 " fill-opacity="0.6471" fill-rule="nonzero"/><path fill="#6b184e" d="M 4.945312 24.324219 C 4.804688 24.324219 4.664062 24.289062 4.535156 24.214844 L 2.542969 23.070312 C 2.355469 22.960938 2.21875 22.78125 2.160156 22.570312 C 2.105469 22.359375 2.132812 22.136719 2.242188 21.949219 L 3.167969 20.351562 C 3.277344 20.164062 3.453125 20.027344 3.667969 19.972656 C 3.878906 19.914062 4.101562 19.941406 4.289062 20.054688 L 6.28125 21.199219 C 6.472656 21.308594 6.609375 21.488281 6.664062 21.699219 C 6.722656 21.910156 6.695312 22.128906 6.582031 22.320312 L 5.660156 23.914062 C 5.550781 24.105469 5.371094 24.238281 5.160156 24.296875 C 5.089844 24.316406 5.019531 24.324219 4.945312 24.324219 Z M 3.878906 20.332031 C 3.730469 20.332031 3.582031 20.40625 3.503906 20.546875 L 2.578125 22.140625 C 2.519531 22.242188 2.503906 22.359375 2.535156 22.46875 C 2.566406 22.582031 2.636719 22.675781 2.738281 22.734375 L 4.730469 23.878906 C 4.832031 23.9375 4.949219 23.953125 5.058594 23.921875 C 5.171875 23.894531 5.265625 23.820312 5.324219 23.722656 L 6.246094 22.128906 C 6.304688 22.027344 6.320312 21.910156 6.289062 21.800781 C 6.261719 21.6875 6.1875 21.59375 6.089844 21.535156 L 4.097656 20.390625 C 4.027344 20.347656 3.953125 20.332031 3.878906 20.332031 Z M 3.878906 20.332031 " fill-opacity="1" fill-rule="nonzero"/><path fill="#e36836" d="M 23.050781 22.222656 L 23.972656 23.816406 C 24.148438 24.117188 24.53125 24.222656 24.832031 24.046875 L 26.824219 22.902344 C 27.125 22.726562 27.226562 22.34375 27.054688 22.046875 L 26.128906 20.449219 C 25.957031 20.148438 25.574219 20.046875 25.273438 20.222656 L 23.28125 21.367188 C 22.980469 21.539062 22.875 21.925781 23.050781 22.222656 Z M 23.050781 22.222656 " fill-opacity="1" fill-rule="nonzero"/><path fill="#ffffff" d="M 26.839844 22.890625 C 26.875 22.742188 26.855469 22.582031 26.773438 22.441406 L 25.847656 20.847656 C 25.675781 20.546875 25.289062 20.445312 24.988281 20.617188 L 23 21.765625 C 22.992188 21.769531 22.988281 21.773438 22.980469 21.777344 C 23.019531 21.609375 23.121094 21.460938 23.28125 21.371094 L 25.273438 20.222656 C 25.574219 20.046875 25.957031 20.152344 26.128906 20.453125 L 27.054688 22.046875 C 27.226562 22.339844 27.128906 22.714844 26.839844 22.890625 Z M 26.839844 22.890625 " fill-opacity="0.6471" fill-rule="nonzero"/><path fill="#6b184e" d="M 24.519531 24.363281 C 24.445312 24.363281 24.371094 24.351562 24.296875 24.332031 C 24.074219 24.273438 23.890625 24.128906 23.773438 23.933594 L 22.851562 22.339844 C 22.613281 21.929688 22.753906 21.402344 23.167969 21.167969 L 25.15625 20.019531 C 25.570312 19.785156 26.09375 19.925781 26.332031 20.335938 L 27.253906 21.929688 C 27.492188 22.339844 27.351562 22.863281 26.941406 23.101562 L 24.949219 24.246094 C 24.816406 24.324219 24.667969 24.363281 24.519531 24.363281 Z M 25.585938 20.367188 C 25.519531 20.367188 25.449219 20.382812 25.386719 20.421875 L 23.394531 21.566406 C 23.207031 21.675781 23.140625 21.917969 23.25 22.109375 L 24.175781 23.703125 C 24.226562 23.792969 24.3125 23.859375 24.414062 23.886719 C 24.519531 23.914062 24.625 23.902344 24.71875 23.847656 L 26.710938 22.703125 C 26.898438 22.59375 26.964844 22.347656 26.855469 22.160156 L 25.933594 20.566406 C 25.855469 20.4375 25.722656 20.367188 25.585938 20.367188 Z M 25.585938 20.367188 " fill-opacity="1" fill-rule="nonzero"/><path fill="#d76531" d="M 10.511719 17.75 L 8.980469 18.78125 C 8.691406 18.972656 8.300781 18.898438 8.105469 18.613281 L 6.820312 16.710938 C 6.625 16.421875 6.703125 16.03125 6.988281 15.839844 L 8.519531 14.808594 C 8.808594 14.617188 9.199219 14.691406 9.394531 14.976562 L 10.679688 16.878906 C 10.875 17.167969 10.800781 17.554688 10.511719 17.75 Z M 10.511719 17.75 " fill-opacity="1" fill-rule="nonzero"/><path fill="#ffffff" d="M 9.621094 15.3125 C 9.421875 15.03125 9.039062 14.957031 8.753906 15.152344 L 7.222656 16.179688 C 6.933594 16.375 6.859375 16.761719 7.050781 17.050781 L 6.820312 16.710938 C 6.625 16.421875 6.703125 16.035156 6.988281 15.839844 L 8.519531 14.808594 C 8.808594 14.617188 9.199219 14.691406 9.394531 14.976562 Z M 9.621094 15.3125 " fill-opacity="0.6471" fill-rule="nonzero"/><path fill="#6b184e" d="M 8.628906 19.117188 C 8.574219 19.117188 8.519531 19.113281 8.464844 19.101562 C 8.238281 19.058594 8.042969 18.929688 7.917969 18.738281 L 6.628906 16.839844 C 6.5 16.648438 6.453125 16.421875 6.5 16.195312 C 6.542969 15.972656 6.671875 15.777344 6.863281 15.648438 L 8.394531 14.617188 C 8.582031 14.492188 8.8125 14.445312 9.039062 14.488281 C 9.261719 14.53125 9.457031 14.660156 9.585938 14.847656 L 10.871094 16.75 C 11 16.941406 11.046875 17.167969 11.003906 17.394531 C 10.960938 17.617188 10.832031 17.8125 10.640625 17.941406 L 9.109375 18.96875 C 8.964844 19.066406 8.800781 19.117188 8.628906 19.117188 Z M 8.871094 14.933594 C 8.792969 14.933594 8.714844 14.957031 8.648438 15 L 7.117188 16.03125 C 6.9375 16.152344 6.890625 16.398438 7.011719 16.582031 L 8.296875 18.484375 C 8.421875 18.664062 8.667969 18.710938 8.851562 18.589844 L 10.382812 17.558594 C 10.46875 17.5 10.527344 17.410156 10.550781 17.304688 C 10.570312 17.203125 10.546875 17.097656 10.488281 17.007812 L 9.203125 15.105469 C 9.144531 15.019531 9.054688 14.960938 8.949219 14.941406 C 8.921875 14.933594 8.898438 14.933594 8.871094 14.933594 Z M 8.871094 14.933594 " fill-opacity="1" fill-rule="nonzero"/><path fill="#e36836" d="M 20.820312 13.640625 L 20.371094 15.425781 C 20.289062 15.761719 19.945312 15.96875 19.609375 15.882812 L 17.378906 15.324219 C 17.042969 15.238281 16.835938 14.898438 16.921875 14.5625 L 17.371094 12.777344 C 17.457031 12.441406 17.796875 12.238281 18.132812 12.324219 L 20.363281 12.882812 C 20.699219 12.964844 20.90625 13.304688 20.820312 13.640625 Z M 20.820312 13.640625 " fill-opacity="1" fill-rule="nonzero"/><path fill="#ffffff" d="M 20.820312 13.640625 L 20.371094 15.425781 C 20.355469 15.492188 20.328125 15.550781 20.296875 15.605469 L 20.691406 14.03125 C 20.777344 13.695312 20.570312 13.355469 20.234375 13.269531 L 18.003906 12.710938 C 17.730469 12.644531 17.457031 12.765625 17.316406 12.992188 L 17.371094 12.777344 C 17.453125 12.441406 17.796875 12.238281 18.132812 12.324219 L 20.363281 12.882812 C 20.699219 12.964844 20.90625 13.304688 20.820312 13.640625 Z M 20.820312 13.640625 " fill-opacity="0.6471" fill-rule="nonzero"/><path fill="#6b184e" d="M 19.761719 16.097656 C 19.695312 16.097656 19.628906 16.085938 19.5625 16.070312 L 17.328125 15.511719 C 17.117188 15.457031 16.9375 15.324219 16.824219 15.136719 C 16.710938 14.949219 16.679688 14.730469 16.730469 14.515625 L 17.179688 12.730469 C 17.234375 12.515625 17.367188 12.339844 17.558594 12.226562 C 17.746094 12.113281 17.964844 12.082031 18.179688 12.132812 L 20.410156 12.691406 C 20.625 12.746094 20.800781 12.878906 20.914062 13.066406 C 21.027344 13.253906 21.0625 13.476562 21.007812 13.6875 L 20.558594 15.472656 C 20.503906 15.6875 20.371094 15.867188 20.183594 15.980469 C 20.054688 16.054688 19.910156 16.097656 19.761719 16.097656 Z M 17.980469 12.496094 C 17.902344 12.496094 17.824219 12.519531 17.757812 12.558594 C 17.660156 12.617188 17.589844 12.714844 17.558594 12.824219 L 17.109375 14.613281 C 17.082031 14.726562 17.101562 14.839844 17.160156 14.941406 C 17.21875 15.039062 17.3125 15.109375 17.425781 15.136719 L 19.65625 15.695312 C 19.769531 15.726562 19.886719 15.707031 19.988281 15.648438 C 20.085938 15.589844 20.15625 15.496094 20.183594 15.382812 L 20.632812 13.59375 C 20.664062 13.484375 20.644531 13.367188 20.585938 13.265625 C 20.527344 13.167969 20.429688 13.097656 20.320312 13.070312 L 18.089844 12.511719 C 18.050781 12.5 18.015625 12.496094 17.980469 12.496094 Z M 17.980469 12.496094 " fill-opacity="1" fill-rule="nonzero"/><path fill="#ffffff" d="M 5.273438 18.394531 C 5.289062 18.675781 5.320312 18.964844 5.292969 19.210938 C 5.277344 18.929688 5.246094 18.636719 5.273438 18.394531 Z M 5.273438 18.394531 " fill-opacity="0.6471" fill-rule="nonzero"/><path fill="#ffffff" d="M 24.207031 19.089844 C 24.183594 18.875 24.207031 18.628906 24.21875 18.386719 C 24.242188 18.601562 24.222656 18.851562 24.207031 19.089844 Z M 24.207031 19.089844 " fill-opacity="0.6471" fill-rule="nonzero"/><path fill="#83c351" d="M 24.152344 22.523438 C 25.996094 21.039062 24.976562 20.34375 24.550781 19.558594 C 24.261719 19.027344 24.679688 17.953125 24.3125 17.480469 C 23.945312 17.011719 22.816406 17.296875 22.386719 16.886719 C 21.957031 16.476562 22.121094 15.273438 21.636719 14.933594 C 21.15625 14.59375 20.15625 15.210938 19.628906 14.949219 C 19.109375 14.6875 18.925781 13.484375 18.367188 13.304688 C 17.816406 13.128906 17.03125 14.027344 16.453125 13.9375 C 15.886719 13.847656 15.378906 12.753906 14.792969 12.753906 C 14.203125 12.753906 13.699219 13.847656 13.132812 13.9375 C 12.550781 14.027344 11.765625 13.128906 11.214844 13.304688 C 10.65625 13.484375 10.476562 14.6875 9.957031 14.949219 C 9.429688 15.210938 8.429688 14.59375 7.945312 14.933594 C 7.464844 15.273438 7.625 16.476562 7.195312 16.886719 C 6.765625 17.296875 5.636719 17.011719 5.269531 17.480469 C 4.902344 17.953125 5.316406 19.089844 5.0625 19.640625 C 4.691406 20.453125 3.46875 21.15625 4.972656 22.398438 Z M 24.152344 22.523438 " fill-opacity="1" fill-rule="nonzero"/><path fill="#ffffff" d="M 24.402344 18.441406 C 24.386719 18.273438 24.34375 18.121094 24.253906 18.003906 C 23.886719 17.53125 22.753906 17.816406 22.328125 17.410156 C 21.898438 17 22.058594 15.792969 21.574219 15.453125 C 21.09375 15.117188 20.09375 15.730469 19.570312 15.46875 C 19.046875 15.210938 18.867188 14.007812 18.308594 13.828125 C 17.757812 13.652344 16.972656 14.546875 16.394531 14.457031 C 15.828125 14.371094 15.320312 13.273438 14.730469 13.273438 C 14.144531 13.273438 13.636719 14.371094 13.070312 14.457031 C 12.492188 14.546875 11.707031 13.652344 11.15625 13.828125 C 10.597656 14.007812 10.417969 15.210938 9.894531 15.46875 C 9.371094 15.730469 8.367188 15.117188 7.890625 15.453125 C 7.40625 15.792969 7.566406 17 7.136719 17.410156 C 6.710938 17.820312 5.582031 17.53125 5.214844 18.003906 C 5.125 18.117188 5.082031 18.273438 5.0625 18.449219 C 5.042969 18.066406 5.042969 17.703125 5.214844 17.480469 C 5.582031 17.011719 6.710938 17.296875 7.136719 16.886719 C 7.566406 16.476562 7.40625 15.273438 7.890625 14.933594 C 8.371094 14.59375 9.371094 15.207031 9.894531 14.949219 C 10.417969 14.6875 10.597656 13.484375 11.15625 13.304688 C 11.707031 13.128906 12.492188 14.027344 13.070312 13.9375 C 13.636719 13.847656 14.144531 12.753906 14.730469 12.753906 C 15.320312 12.753906 15.828125 13.847656 16.394531 13.9375 C 16.972656 14.027344 17.757812 13.128906 18.308594 13.304688 C 18.867188 13.484375 19.046875 14.6875 19.570312 14.949219 C 20.09375 15.207031 21.097656 14.59375 21.574219 14.933594 C 22.058594 15.269531 21.898438 16.476562 22.328125 16.886719 C 22.753906 17.296875 23.886719 17.011719 24.253906 17.480469 C 24.425781 17.707031 24.421875 18.066406 24.402344 18.441406 Z M 24.402344 18.441406 " fill-opacity="0.6471" fill-rule="nonzero"/><path fill="#6b184e" d="M 24.222656 22.71875 L 24.152344 22.71875 L 4.902344 22.59375 L 4.851562 22.546875 C 3.554688 21.476562 4.113281 20.699219 4.5625 20.074219 C 4.691406 19.894531 4.8125 19.726562 4.890625 19.558594 C 4.988281 19.351562 4.960938 18.988281 4.9375 18.640625 C 4.90625 18.167969 4.875 17.675781 5.117188 17.363281 C 5.363281 17.050781 5.808594 17.007812 6.242188 16.964844 C 6.570312 16.929688 6.90625 16.898438 7.0625 16.746094 C 7.222656 16.59375 7.289062 16.242188 7.351562 15.898438 C 7.433594 15.453125 7.519531 14.996094 7.835938 14.773438 C 8.15625 14.546875 8.597656 14.640625 9.023438 14.730469 C 9.34375 14.796875 9.679688 14.867188 9.871094 14.773438 C 10.0625 14.679688 10.21875 14.363281 10.375 14.058594 C 10.578125 13.65625 10.789062 13.238281 11.160156 13.121094 C 11.523438 13.003906 11.917969 13.226562 12.296875 13.441406 C 12.589844 13.605469 12.890625 13.777344 13.101562 13.742188 C 13.304688 13.710938 13.542969 13.460938 13.773438 13.21875 C 14.082031 12.894531 14.398438 12.558594 14.792969 12.558594 C 15.1875 12.558594 15.503906 12.894531 15.8125 13.21875 C 16.042969 13.460938 16.28125 13.710938 16.484375 13.742188 C 16.695312 13.777344 16.996094 13.605469 17.289062 13.441406 C 17.671875 13.226562 18.0625 13.003906 18.429688 13.121094 C 18.800781 13.238281 19.007812 13.65625 19.210938 14.058594 C 19.367188 14.363281 19.527344 14.679688 19.714844 14.773438 C 19.910156 14.867188 20.242188 14.796875 20.566406 14.730469 C 20.992188 14.640625 21.429688 14.546875 21.75 14.773438 C 22.066406 14.996094 22.152344 15.453125 22.234375 15.898438 C 22.296875 16.242188 22.363281 16.59375 22.523438 16.746094 C 22.679688 16.898438 23.019531 16.929688 23.347656 16.964844 C 23.777344 17.007812 24.226562 17.050781 24.46875 17.363281 C 24.707031 17.667969 24.679688 18.128906 24.652344 18.570312 C 24.632812 18.910156 24.609375 19.261719 24.722656 19.464844 C 24.785156 19.585938 24.867188 19.703125 24.949219 19.828125 C 25.402344 20.492188 25.960938 21.316406 24.277344 22.675781 Z M 5.046875 22.207031 L 24.085938 22.332031 C 25.429688 21.226562 25.058594 20.679688 24.628906 20.046875 C 24.542969 19.917969 24.453125 19.785156 24.378906 19.652344 C 24.214844 19.351562 24.238281 18.945312 24.261719 18.546875 C 24.285156 18.175781 24.308594 17.789062 24.160156 17.601562 C 24.019531 17.421875 23.65625 17.382812 23.304688 17.347656 C 22.914062 17.308594 22.507812 17.269531 22.253906 17.027344 C 22.003906 16.789062 21.925781 16.371094 21.851562 15.96875 C 21.78125 15.601562 21.710938 15.222656 21.523438 15.089844 C 21.34375 14.960938 20.988281 15.039062 20.644531 15.109375 C 20.257812 15.191406 19.855469 15.277344 19.542969 15.121094 C 19.234375 14.96875 19.046875 14.59375 18.863281 14.234375 C 18.695312 13.902344 18.523438 13.558594 18.308594 13.488281 C 18.105469 13.425781 17.785156 13.605469 17.476562 13.777344 C 17.128906 13.976562 16.765625 14.179688 16.421875 14.128906 C 16.085938 14.074219 15.804688 13.777344 15.527344 13.484375 C 15.277344 13.21875 15.015625 12.945312 14.789062 12.945312 C 14.566406 12.945312 14.304688 13.21875 14.050781 13.484375 C 13.777344 13.777344 13.496094 14.074219 13.160156 14.128906 C 12.8125 14.179688 12.453125 13.976562 12.101562 13.777344 C 11.796875 13.605469 11.476562 13.425781 11.273438 13.488281 C 11.058594 13.558594 10.886719 13.902344 10.71875 14.230469 C 10.535156 14.59375 10.347656 14.964844 10.039062 15.121094 C 9.726562 15.277344 9.324219 15.191406 8.9375 15.109375 C 8.59375 15.035156 8.238281 14.960938 8.058594 15.089844 C 7.871094 15.21875 7.796875 15.601562 7.730469 15.96875 C 7.65625 16.371094 7.578125 16.789062 7.328125 17.023438 C 7.074219 17.265625 6.667969 17.308594 6.277344 17.347656 C 5.925781 17.382812 5.5625 17.417969 5.421875 17.597656 C 5.269531 17.796875 5.296875 18.210938 5.324219 18.617188 C 5.347656 19.011719 5.375 19.421875 5.238281 19.71875 C 5.144531 19.921875 5.007812 20.113281 4.875 20.300781 C 4.441406 20.910156 4.09375 21.390625 5.046875 22.207031 Z M 5.046875 22.207031 " fill-opacity="1" fill-rule="nonzero"/><path fill="#e66e5f" d="M 23.21875 22.9375 C 23.21875 22.996094 23.179688 23.027344 23.105469 23.027344 C 23.027344 23.027344 22.992188 22.996094 22.992188 22.9375 C 22.992188 22.875 23.027344 22.84375 23.105469 22.84375 C 23.179688 22.84375 23.21875 22.875 23.21875 22.9375 Z M 23.21875 22.9375 " fill-opacity="0.298" fill-rule="nonzero"/><path fill="#f6af40" d="M 24.628906 25.785156 L 4.882812 25.785156 C 3.925781 25.785156 3.203125 24.929688 3.347656 23.988281 C 3.519531 22.898438 3.84375 21.863281 4.296875 20.898438 C 4.820312 19.785156 5.515625 18.773438 6.351562 17.890625 C 6.210938 17.589844 6.09375 17.277344 6.007812 16.945312 C 5.699219 15.785156 5.777344 14.613281 6.171875 13.566406 C 6.308594 13.199219 6.730469 13.027344 7.089844 13.183594 L 10.988281 14.898438 C 12.167969 14.492188 13.4375 14.269531 14.753906 14.269531 C 16.074219 14.269531 17.34375 14.492188 18.523438 14.898438 L 22.417969 13.183594 C 22.777344 13.027344 23.203125 13.199219 23.339844 13.566406 C 23.730469 14.609375 23.8125 15.785156 23.503906 16.945312 C 23.414062 17.277344 23.300781 17.589844 23.160156 17.890625 C 23.996094 18.769531 24.691406 19.785156 25.214844 20.898438 C 25.667969 21.863281 25.992188 22.898438 26.160156 23.988281 C 26.3125 24.929688 25.585938 25.785156 24.628906 25.785156 Z M 24.628906 25.785156 " fill-opacity="1" fill-rule="nonzero"/><path fill="#ffffff" d="M 23.660156 15.800781 C 23.632812 15.230469 23.511719 14.675781 23.316406 14.152344 C 23.179688 13.785156 22.753906 13.613281 22.394531 13.773438 L 18.875 15.320312 C 18.636719 15.425781 18.367188 15.4375 18.117188 15.359375 C 17.203125 15.082031 16.242188 14.914062 15.246094 14.867188 C 14.898438 15.453125 13.257812 15.5625 12.886719 15.003906 C 12.359375 15.085938 11.839844 15.207031 11.335938 15.363281 C 11.089844 15.4375 10.828125 15.425781 10.59375 15.320312 L 7.066406 13.769531 C 6.707031 13.613281 6.285156 13.785156 6.148438 14.152344 C 5.949219 14.675781 5.832031 15.230469 5.800781 15.800781 C 5.757812 15.027344 5.882812 14.265625 6.148438 13.566406 C 6.285156 13.199219 6.707031 13.027344 7.066406 13.183594 L 10.964844 14.898438 C 12.144531 14.492188 13.410156 14.269531 14.730469 14.269531 C 16.050781 14.269531 17.320312 14.492188 18.5 14.898438 L 22.394531 13.183594 C 22.753906 13.027344 23.179688 13.199219 23.316406 13.566406 C 23.578125 14.269531 23.703125 15.027344 23.660156 15.800781 Z M 23.660156 15.800781 " fill-opacity="0.6471" fill-rule="nonzero"/><path fill="#fbc4e5" d="M 22.429688 14.339844 L 20.820312 15.894531 L 22.46875 17.183594 C 22.714844 16.199219 22.738281 15.246094 22.429688 14.339844 Z M 22.429688 14.339844 " fill-opacity="1" fill-rule="nonzero"/><path fill="#6b184e" d="M 22.582031 14.914062 L 21.230469 16.214844 L 20.820312 15.894531 L 22.429688 14.339844 C 22.496094 14.53125 22.542969 14.722656 22.582031 14.914062 Z M 22.582031 14.914062 " fill-opacity="0.298" fill-rule="nonzero"/><path fill="#6b184e" d="M 22.488281 17.425781 C 22.449219 17.425781 22.40625 17.410156 22.375 17.382812 C 21.855469 16.910156 21.289062 16.488281 20.695312 16.121094 C 20.617188 16.074219 20.589844 15.96875 20.640625 15.886719 C 20.6875 15.808594 20.792969 15.785156 20.875 15.832031 C 21.488281 16.210938 22.066406 16.648438 22.605469 17.132812 C 22.675781 17.195312 22.679688 17.300781 22.617188 17.371094 C 22.582031 17.40625 22.535156 17.425781 22.488281 17.425781 Z M 22.488281 17.425781 " fill-opacity="1" fill-rule="nonzero"/><path fill="#6b184e" d="M 24.605469 26.015625 L 4.859375 26.015625 C 4.335938 26.015625 3.84375 25.789062 3.503906 25.394531 C 3.164062 24.996094 3.015625 24.472656 3.097656 23.953125 C 3.457031 21.664062 4.476562 19.554688 6.054688 17.84375 C 5.933594 17.578125 5.835938 17.292969 5.757812 17.007812 C 5.445312 15.835938 5.507812 14.617188 5.929688 13.484375 C 6.019531 13.25 6.195312 13.066406 6.429688 12.96875 C 6.660156 12.871094 6.929688 12.875 7.160156 12.976562 L 10.972656 14.652344 C 12.179688 14.246094 13.445312 14.042969 14.730469 14.042969 C 16.019531 14.042969 17.28125 14.246094 18.488281 14.652344 L 22.304688 12.976562 C 22.535156 12.875 22.800781 12.871094 23.035156 12.96875 C 23.265625 13.066406 23.445312 13.25 23.53125 13.484375 C 23.957031 14.617188 24.015625 15.835938 23.703125 17.007812 C 23.625 17.292969 23.527344 17.578125 23.410156 17.84375 C 24.984375 19.554688 26.007812 21.664062 26.367188 23.953125 C 26.449219 24.472656 26.296875 24.996094 25.957031 25.394531 C 25.617188 25.789062 25.125 26.015625 24.605469 26.015625 Z M 6.789062 13.355469 C 6.726562 13.355469 6.667969 13.367188 6.609375 13.390625 C 6.492188 13.441406 6.40625 13.53125 6.363281 13.644531 C 5.972656 14.6875 5.917969 15.808594 6.207031 16.886719 C 6.289062 17.203125 6.402344 17.503906 6.535156 17.792969 C 6.578125 17.878906 6.5625 17.980469 6.496094 18.046875 C 4.921875 19.710938 3.90625 21.777344 3.550781 24.023438 C 3.492188 24.410156 3.601562 24.800781 3.855469 25.097656 C 4.109375 25.386719 4.472656 25.554688 4.859375 25.554688 L 24.605469 25.554688 C 24.992188 25.554688 25.355469 25.386719 25.609375 25.097656 C 25.863281 24.800781 25.972656 24.410156 25.914062 24.023438 C 25.558594 21.777344 24.542969 19.710938 22.96875 18.046875 C 22.90625 17.980469 22.886719 17.878906 22.929688 17.792969 C 23.0625 17.503906 23.175781 17.199219 23.257812 16.886719 C 23.546875 15.808594 23.492188 14.6875 23.101562 13.648438 C 23.058594 13.53125 22.972656 13.441406 22.859375 13.394531 C 22.738281 13.34375 22.609375 13.34375 22.492188 13.394531 L 18.597656 15.109375 C 18.542969 15.132812 18.480469 15.136719 18.425781 15.117188 C 17.242188 14.707031 16 14.5 14.734375 14.5 C 13.46875 14.5 12.222656 14.707031 11.039062 15.117188 C 10.984375 15.136719 10.925781 15.132812 10.871094 15.109375 L 6.976562 13.394531 C 6.914062 13.367188 6.851562 13.355469 6.789062 13.355469 Z M 6.789062 13.355469 " fill-opacity="1" fill-rule="nonzero"/><path fill="#e66e5f" d="M 8.253906 22.585938 C 8.253906 22.648438 8.21875 22.703125 8.152344 22.75 C 8.085938 22.792969 8.003906 22.816406 7.910156 22.816406 C 7.816406 22.816406 7.734375 22.792969 7.667969 22.75 C 7.601562 22.703125 7.570312 22.648438 7.570312 22.585938 C 7.570312 22.523438 7.601562 22.46875 7.667969 22.421875 C 7.734375 22.378906 7.816406 22.355469 7.910156 22.355469 C 8.003906 22.355469 8.085938 22.378906 8.152344 22.421875 C 8.21875 22.46875 8.253906 22.523438 8.253906 22.585938 Z M 8.253906 22.585938 " fill-opacity="0.298" fill-rule="nonzero"/><path fill="#e66e5f" d="M 21.902344 22.46875 C 21.902344 22.53125 21.867188 22.585938 21.800781 22.632812 C 21.734375 22.675781 21.65625 22.699219 21.558594 22.699219 C 21.464844 22.699219 21.386719 22.675781 21.320312 22.632812 C 21.25 22.585938 21.21875 22.53125 21.21875 22.46875 C 21.21875 22.40625 21.25 22.351562 21.320312 22.304688 C 21.386719 22.261719 21.464844 22.238281 21.558594 22.238281 C 21.65625 22.238281 21.734375 22.261719 21.800781 22.304688 C 21.867188 22.351562 21.902344 22.40625 21.902344 22.46875 Z M 21.902344 22.46875 " fill-opacity="0.298" fill-rule="nonzero"/><path fill="#e66e5f" d="M 12.769531 22.699219 C 12.769531 22.816406 12.683594 22.875 12.507812 22.875 C 12.328125 22.875 12.242188 22.816406 12.242188 22.699219 C 12.242188 22.578125 12.328125 22.519531 12.507812 22.519531 C 12.683594 22.519531 12.769531 22.578125 12.769531 22.699219 Z M 12.769531 22.699219 " fill-opacity="0.298" fill-rule="nonzero"/><path fill="#e66e5f" d="M 22.089844 20.429688 C 22.089844 20.546875 22.003906 20.609375 21.824219 20.609375 C 21.648438 20.609375 21.558594 20.546875 21.558594 20.429688 C 21.558594 20.3125 21.648438 20.25 21.824219 20.25 C 22.003906 20.25 22.089844 20.3125 22.089844 20.429688 Z M 22.089844 20.429688 " fill-opacity="0.298" fill-rule="nonzero"/><path fill="#e66e5f" d="M 18.15625 23.089844 C 18.15625 23.164062 18.117188 23.226562 18.042969 23.277344 C 17.964844 23.328125 17.871094 23.355469 17.765625 23.355469 C 17.65625 23.355469 17.5625 23.328125 17.484375 23.277344 C 17.410156 23.226562 17.371094 23.164062 17.371094 23.089844 C 17.371094 23.015625 17.410156 22.953125 17.484375 22.902344 C 17.5625 22.851562 17.65625 22.824219 17.765625 22.824219 C 17.871094 22.824219 17.964844 22.851562 18.042969 22.902344 C 18.117188 22.953125 18.15625 23.015625 18.15625 23.089844 Z M 18.15625 23.089844 " fill-opacity="0.298" fill-rule="nonzero"/><path fill="#e66e5f" d="M 19.1875 21.191406 C 19.1875 21.261719 19.136719 21.296875 19.03125 21.296875 C 18.925781 21.296875 18.871094 21.261719 18.871094 21.191406 C 18.871094 21.121094 18.925781 21.085938 19.03125 21.085938 C 19.136719 21.085938 19.1875 21.121094 19.1875 21.191406 Z M 19.1875 21.191406 " fill-opacity="0.298" fill-rule="nonzero"/><path fill="#e66e5f" d="M 7.496094 19.871094 C 7.496094 19.957031 7.441406 20 7.335938 20 C 7.230469 20 7.175781 19.957031 7.175781 19.871094 C 7.175781 19.785156 7.230469 19.742188 7.335938 19.742188 C 7.441406 19.742188 7.496094 19.785156 7.496094 19.871094 Z M 7.496094 19.871094 " fill-opacity="0.298" fill-rule="nonzero"/><path fill="#e66e5f" d="M 10.765625 21.964844 C 10.765625 22.023438 10.726562 22.054688 10.652344 22.054688 C 10.574219 22.054688 10.535156 22.023438 10.535156 21.964844 C 10.535156 21.902344 10.574219 21.871094 10.652344 21.871094 C 10.726562 21.871094 10.765625 21.902344 10.765625 21.964844 Z M 10.765625 21.964844 " fill-opacity="0.298" fill-rule="nonzero"/><path fill="#e66e5f" d="M 6.039062 21.769531 C 6.039062 21.859375 5.980469 21.902344 5.859375 21.902344 C 5.738281 21.902344 5.679688 21.859375 5.679688 21.769531 C 5.679688 21.683594 5.738281 21.636719 5.859375 21.636719 C 5.980469 21.636719 6.039062 21.683594 6.039062 21.769531 Z M 6.039062 21.769531 " fill-opacity="0.298" fill-rule="nonzero"/><path fill="#e66e5f" d="M 16.125 19.40625 C 16.125 19.496094 16.054688 19.539062 15.917969 19.539062 C 15.78125 19.539062 15.710938 19.496094 15.710938 19.40625 C 15.710938 19.320312 15.78125 19.277344 15.917969 19.277344 C 16.054688 19.277344 16.125 19.320312 16.125 19.40625 Z M 16.125 19.40625 " fill-opacity="0.298" fill-rule="nonzero"/><path fill="#e66e5f" d="M 14.015625 18.625 C 14.015625 18.683594 13.960938 18.714844 13.847656 18.714844 C 13.734375 18.714844 13.675781 18.683594 13.675781 18.625 C 13.675781 18.5625 13.734375 18.53125 13.847656 18.53125 C 13.960938 18.53125 14.015625 18.5625 14.015625 18.625 Z M 14.015625 18.625 " fill-opacity="0.298" fill-rule="nonzero"/><path fill="#e66e5f" d="M 24.101562 22.238281 C 24.101562 22.300781 24.066406 22.328125 23.988281 22.328125 C 23.914062 22.328125 23.875 22.300781 23.875 22.238281 C 23.875 22.175781 23.914062 22.144531 23.988281 22.144531 C 24.066406 22.144531 24.101562 22.175781 24.101562 22.238281 Z M 24.101562 22.238281 " fill-opacity="0.298" fill-rule="nonzero"/><path fill="#e66e5f" d="M 10.0625 19.445312 C 10.0625 19.53125 9.992188 19.574219 9.855469 19.574219 C 9.71875 19.574219 9.652344 19.53125 9.652344 19.445312 C 9.652344 19.363281 9.71875 19.320312 9.855469 19.320312 C 9.992188 19.320312 10.0625 19.363281 10.0625 19.445312 Z M 10.0625 19.445312 " fill-opacity="0.298" fill-rule="nonzero"/><path fill="#e66e5f" d="M 20.96875 18.957031 C 20.96875 19.042969 20.902344 19.082031 20.765625 19.082031 C 20.628906 19.082031 20.558594 19.042969 20.558594 18.957031 C 20.558594 18.871094 20.628906 18.828125 20.765625 18.828125 C 20.902344 18.828125 20.96875 18.871094 20.96875 18.957031 Z M 20.96875 18.957031 " fill-opacity="0.298" fill-rule="nonzero"/><path fill="#6b184e" d="M 25.691406 24.03125 C 25.539062 23.21875 25.300781 22.4375 24.984375 21.699219 C 22.976562 25.109375 6.878906 24.972656 4.550781 21.773438 C 4.230469 22.566406 4 23.398438 3.859375 24.265625 C 3.921875 24.640625 4.117188 24.96875 4.398438 25.207031 C 4.226562 25.152344 4.066406 25.066406 3.925781 24.960938 C 4.183594 25.15625 4.503906 25.273438 4.859375 25.273438 L 24.605469 25.273438 C 24.9375 25.273438 25.242188 25.171875 25.488281 25 C 25.492188 24.996094 25.492188 24.996094 25.492188 24.992188 C 25.6875 24.710938 25.753906 24.363281 25.691406 24.03125 Z M 25.691406 24.03125 " fill-opacity="0.2" fill-rule="nonzero"/><path fill="#6b184e" d="M 22.53125 17.464844 C 22.519531 17.464844 22.503906 17.460938 22.488281 17.457031 C 22.398438 17.433594 22.34375 17.34375 22.367188 17.25 C 22.609375 16.304688 22.609375 15.21875 22.367188 14.347656 C 22.34375 14.257812 22.394531 14.164062 22.484375 14.140625 C 22.574219 14.113281 22.671875 14.167969 22.695312 14.257812 C 22.953125 15.183594 22.953125 16.335938 22.695312 17.335938 C 22.675781 17.414062 22.605469 17.464844 22.53125 17.464844 Z M 22.53125 17.464844 " fill-opacity="1" fill-rule="nonzero"/><path fill="#6b184e" d="M 20.734375 16.117188 C 20.691406 16.117188 20.644531 16.097656 20.609375 16.0625 C 20.546875 15.992188 20.550781 15.886719 20.621094 15.824219 L 22.414062 14.179688 L 22.621094 13.980469 C 22.691406 13.917969 22.796875 13.917969 22.863281 13.984375 C 22.925781 14.054688 22.925781 14.160156 22.855469 14.226562 L 22.648438 14.425781 L 20.847656 16.074219 C 20.820312 16.101562 20.777344 16.117188 20.734375 16.117188 Z M 20.734375 16.117188 " fill-opacity="1" fill-rule="nonzero"/><path fill="#fbc4e5" d="M 7.140625 14.339844 L 8.75 15.894531 L 7.097656 17.183594 C 6.851562 16.199219 6.832031 15.246094 7.140625 14.339844 Z M 7.140625 14.339844 " fill-opacity="1" fill-rule="nonzero"/><path fill="#6b184e" d="M 8.75 15.894531 L 8.382812 16.179688 L 7 14.847656 C 7.035156 14.679688 7.082031 14.507812 7.140625 14.339844 Z M 8.75 15.894531 " fill-opacity="0.298" fill-rule="nonzero"/><path fill="#6b184e" d="M 7.097656 17.464844 C 7.023438 17.464844 6.953125 17.410156 6.933594 17.335938 C 6.675781 16.335938 6.679688 15.183594 6.933594 14.257812 C 6.960938 14.167969 7.054688 14.113281 7.144531 14.140625 C 7.234375 14.164062 7.289062 14.257812 7.261719 14.347656 C 7.019531 15.21875 7.019531 16.304688 7.261719 17.25 C 7.285156 17.339844 7.234375 17.433594 7.140625 17.457031 C 7.125 17.460938 7.113281 17.464844 7.097656 17.464844 Z M 7.097656 17.464844 " fill-opacity="1" fill-rule="nonzero"/><path fill="#6b184e" d="M 8.894531 16.117188 C 8.851562 16.117188 8.808594 16.101562 8.777344 16.074219 L 6.984375 14.429688 L 6.773438 14.226562 C 6.703125 14.160156 6.703125 14.050781 6.765625 13.984375 C 6.832031 13.917969 6.941406 13.917969 7.007812 13.980469 L 7.21875 14.179688 L 9.007812 15.824219 C 9.078125 15.886719 9.082031 15.992188 9.019531 16.0625 C 8.984375 16.097656 8.941406 16.117188 8.894531 16.117188 Z M 8.894531 16.117188 " fill-opacity="1" fill-rule="nonzero"/><path fill="#6b184e" d="M 7.140625 17.425781 C 7.09375 17.425781 7.046875 17.40625 7.011719 17.371094 C 6.949219 17.300781 6.953125 17.195312 7.023438 17.132812 C 7.5625 16.648438 8.140625 16.210938 8.753906 15.835938 C 8.835938 15.785156 8.941406 15.808594 8.988281 15.890625 C 9.039062 15.96875 9.011719 16.074219 8.933594 16.121094 C 8.339844 16.488281 7.773438 16.914062 7.253906 17.382812 C 7.222656 17.410156 7.179688 17.425781 7.140625 17.425781 Z M 7.140625 17.425781 " fill-opacity="1" fill-rule="nonzero"/><path fill="#ffffff" d="M 21.902344 25.601562 C 21.902344 26.449219 20.925781 26.574219 19.71875 26.574219 C 18.507812 26.574219 17.53125 26.449219 17.53125 25.601562 C 17.53125 24.753906 18.507812 23.8125 19.71875 23.8125 C 20.925781 23.8125 21.902344 24.753906 21.902344 25.601562 Z M 21.902344 25.601562 " fill-opacity="1" fill-rule="nonzero"/><path fill="#6b184e" d="M 21.902344 25.601562 C 21.902344 26.449219 20.925781 26.574219 19.71875 26.574219 C 18.507812 26.574219 17.53125 26.449219 17.53125 25.601562 C 17.53125 25.144531 17.8125 24.660156 18.265625 24.3125 C 18.070312 24.546875 17.957031 24.820312 17.957031 25.078125 C 17.957031 25.761719 18.746094 25.859375 19.71875 25.859375 C 20.691406 25.859375 21.480469 25.761719 21.480469 25.078125 C 21.480469 24.820312 21.363281 24.546875 21.171875 24.3125 C 21.621094 24.660156 21.902344 25.144531 21.902344 25.601562 Z M 21.902344 25.601562 " fill-opacity="0.298" fill-rule="nonzero"/><path fill="#ffffff" d="M 21.902344 25.652344 C 21.902344 25.726562 21.894531 25.796875 21.882812 25.859375 C 21.730469 25.085938 20.832031 24.308594 19.742188 24.296875 C 19.59375 24.550781 19 24.695312 18.839844 24.464844 C 18.160156 24.738281 17.660156 25.300781 17.550781 25.859375 C 17.539062 25.796875 17.53125 25.726562 17.53125 25.652344 C 17.53125 24.804688 18.507812 23.863281 19.714844 23.863281 C 20.925781 23.863281 21.902344 24.804688 21.902344 25.652344 Z M 21.902344 25.652344 " fill-opacity="0.6471" fill-rule="nonzero"/><path fill="#6b184e" d="M 19.71875 26.765625 C 18.886719 26.765625 17.335938 26.765625 17.335938 25.601562 C 17.335938 25.125 17.59375 24.628906 18.042969 24.242188 C 18.511719 23.839844 19.105469 23.617188 19.71875 23.617188 C 20.332031 23.617188 20.925781 23.839844 21.390625 24.242188 C 21.84375 24.628906 22.101562 25.125 22.101562 25.601562 C 22.097656 26.765625 20.550781 26.765625 19.71875 26.765625 Z M 19.71875 24.003906 C 18.613281 24.003906 17.726562 24.878906 17.726562 25.601562 C 17.726562 26.167969 18.265625 26.378906 19.71875 26.378906 C 21.171875 26.378906 21.710938 26.167969 21.710938 25.601562 C 21.710938 24.878906 20.820312 24.003906 19.71875 24.003906 Z M 19.71875 24.003906 " fill-opacity="1" fill-rule="nonzero"/><path fill="#6b184e" d="M 19.523438 26.417969 L 19.71875 25.589844 L 19.910156 26.417969 C 19.9375 26.527344 19.871094 26.632812 19.761719 26.660156 C 19.65625 26.683594 19.546875 26.617188 19.523438 26.511719 C 19.515625 26.480469 19.515625 26.449219 19.523438 26.417969 Z M 19.523438 26.417969 " fill-opacity="1" fill-rule="nonzero"/><path fill="#6b184e" d="M 20.707031 26.363281 L 20.753906 25.542969 L 21.089844 26.296875 C 21.132812 26.394531 21.085938 26.511719 20.988281 26.558594 C 20.886719 26.601562 20.769531 26.558594 20.722656 26.457031 C 20.710938 26.425781 20.703125 26.394531 20.707031 26.363281 Z M 20.707031 26.363281 " fill-opacity="1" fill-rule="nonzero"/><path fill="#6b184e" d="M 18.320312 26.273438 L 18.703125 25.554688 L 18.699219 26.367188 C 18.695312 26.476562 18.609375 26.566406 18.496094 26.566406 C 18.386719 26.566406 18.296875 26.476562 18.296875 26.367188 C 18.296875 26.332031 18.304688 26.300781 18.320312 26.273438 Z M 18.320312 26.273438 " fill-opacity="1" fill-rule="nonzero"/><path fill="#ffffff" d="M 11.933594 25.601562 C 11.933594 26.449219 10.953125 26.574219 9.746094 26.574219 C 8.539062 26.574219 7.558594 26.449219 7.558594 25.601562 C 7.558594 24.753906 8.539062 23.8125 9.746094 23.8125 C 10.953125 23.8125 11.933594 24.753906 11.933594 25.601562 Z M 11.933594 25.601562 " fill-opacity="1" fill-rule="nonzero"/><path fill="#6b184e" d="M 11.933594 25.601562 C 11.933594 26.449219 10.953125 26.574219 9.746094 26.574219 C 8.539062 26.574219 7.558594 26.449219 7.558594 25.601562 C 7.558594 25.144531 7.84375 24.660156 8.292969 24.3125 C 8.097656 24.546875 7.984375 24.820312 7.984375 25.078125 C 7.984375 25.761719 8.773438 25.859375 9.746094 25.859375 C 10.71875 25.859375 11.507812 25.761719 11.507812 25.078125 C 11.507812 24.820312 11.394531 24.546875 11.199219 24.3125 C 11.648438 24.660156 11.933594 25.144531 11.933594 25.601562 Z M 11.933594 25.601562 " fill-opacity="0.298" fill-rule="nonzero"/><path fill="#ffffff" d="M 11.933594 25.652344 C 11.933594 25.726562 11.925781 25.796875 11.910156 25.859375 C 11.757812 25.085938 10.859375 24.308594 9.769531 24.296875 C 9.625 24.550781 9.03125 24.695312 8.871094 24.464844 C 8.191406 24.738281 7.691406 25.300781 7.582031 25.859375 C 7.566406 25.796875 7.558594 25.726562 7.558594 25.652344 C 7.558594 24.804688 8.539062 23.863281 9.746094 23.863281 C 10.953125 23.863281 11.933594 24.804688 11.933594 25.652344 Z M 11.933594 25.652344 " fill-opacity="0.6471" fill-rule="nonzero"/><path fill="#6b184e" d="M 9.746094 26.765625 C 8.914062 26.765625 7.363281 26.765625 7.363281 25.601562 C 7.363281 25.125 7.621094 24.628906 8.074219 24.242188 C 8.539062 23.839844 9.132812 23.617188 9.746094 23.617188 C 10.359375 23.617188 10.953125 23.839844 11.421875 24.242188 C 11.871094 24.628906 12.128906 25.125 12.128906 25.601562 C 12.128906 26.765625 10.578125 26.765625 9.746094 26.765625 Z M 9.746094 24.003906 C 8.640625 24.003906 7.753906 24.878906 7.753906 25.601562 C 7.753906 26.167969 8.292969 26.378906 9.746094 26.378906 C 11.199219 26.378906 11.738281 26.167969 11.738281 25.601562 C 11.738281 24.878906 10.847656 24.003906 9.746094 24.003906 Z M 9.746094 24.003906 " fill-opacity="1" fill-rule="nonzero"/><path fill="#6b184e" d="M 9.550781 26.417969 L 9.746094 25.589844 L 9.941406 26.417969 C 9.964844 26.527344 9.898438 26.632812 9.792969 26.660156 C 9.683594 26.683594 9.578125 26.617188 9.550781 26.511719 C 9.542969 26.480469 9.546875 26.449219 9.550781 26.417969 Z M 9.550781 26.417969 " fill-opacity="1" fill-rule="nonzero"/><path fill="#6b184e" d="M 10.644531 26.363281 L 10.691406 25.542969 L 11.027344 26.296875 C 11.070312 26.394531 11.023438 26.511719 10.925781 26.558594 C 10.824219 26.605469 10.707031 26.558594 10.660156 26.457031 C 10.648438 26.425781 10.644531 26.394531 10.644531 26.363281 Z M 10.644531 26.363281 " fill-opacity="1" fill-rule="nonzero"/><path fill="#6b184e" d="M 8.347656 26.265625 L 8.730469 25.542969 L 8.726562 26.359375 C 8.726562 26.46875 8.636719 26.554688 8.523438 26.554688 C 8.414062 26.554688 8.324219 26.464844 8.324219 26.355469 C 8.324219 26.324219 8.335938 26.292969 8.347656 26.265625 Z M 8.347656 26.265625 " fill-opacity="1" fill-rule="nonzero"/><path fill="#6b184e" d="M 16.027344 20.429688 C 16.027344 20.761719 15.550781 21.285156 14.726562 21.28125 C 13.902344 21.273438 13.433594 20.695312 13.4375 20.359375 C 13.4375 20.027344 13.933594 19.914062 14.757812 19.917969 C 15.578125 19.921875 16.027344 20.09375 16.027344 20.429688 Z M 16.027344 20.429688 " fill-opacity="1" fill-rule="nonzero"/><path fill="#6b184e" d="M 15.789062 22.796875 C 15.464844 22.796875 15.15625 22.671875 14.914062 22.441406 C 14.652344 22.195312 14.5 21.84375 14.5 21.484375 L 14.5 20.394531 C 14.5 20.265625 14.601562 20.164062 14.730469 20.164062 C 14.859375 20.164062 14.960938 20.265625 14.960938 20.394531 L 14.960938 21.480469 C 14.960938 21.71875 15.0625 21.945312 15.230469 22.109375 C 15.394531 22.265625 15.609375 22.34375 15.828125 22.335938 C 16.078125 22.324219 16.511719 22.214844 16.636719 21.617188 C 16.660156 21.492188 16.78125 21.410156 16.910156 21.4375 C 17.035156 21.460938 17.113281 21.585938 17.089844 21.710938 C 16.953125 22.359375 16.492188 22.761719 15.851562 22.792969 C 15.832031 22.796875 15.808594 22.796875 15.789062 22.796875 Z M 15.789062 22.796875 " fill-opacity="1" fill-rule="nonzero"/><path fill="#6b184e" d="M 13.683594 22.796875 C 13.664062 22.796875 13.644531 22.796875 13.621094 22.792969 C 12.980469 22.761719 12.519531 22.359375 12.386719 21.710938 C 12.359375 21.585938 12.441406 21.464844 12.566406 21.4375 C 12.691406 21.410156 12.8125 21.492188 12.839844 21.617188 C 12.960938 22.214844 13.398438 22.320312 13.644531 22.335938 C 13.867188 22.34375 14.078125 22.265625 14.242188 22.109375 C 14.414062 21.945312 14.511719 21.71875 14.511719 21.480469 L 14.511719 20.394531 C 14.511719 20.265625 14.613281 20.164062 14.742188 20.164062 C 14.871094 20.164062 14.972656 20.265625 14.972656 20.394531 L 14.972656 21.480469 C 14.972656 21.84375 14.824219 22.191406 14.5625 22.441406 C 14.320312 22.671875 14.007812 22.796875 13.683594 22.796875 Z M 13.683594 22.796875 " fill-opacity="1" fill-rule="nonzero"/><path fill="#6b184e" d="M 19.660156 19.277344 C 19.660156 19.445312 19.628906 19.609375 19.5625 19.769531 C 19.496094 19.925781 19.402344 20.066406 19.28125 20.1875 C 19.160156 20.308594 19.019531 20.402344 18.863281 20.464844 C 18.703125 20.53125 18.539062 20.566406 18.367188 20.566406 C 18.195312 20.566406 18.03125 20.53125 17.875 20.464844 C 17.714844 20.402344 17.574219 20.308594 17.453125 20.1875 C 17.332031 20.066406 17.238281 19.925781 17.171875 19.769531 C 17.109375 19.609375 17.074219 19.445312 17.074219 19.277344 C 17.074219 19.105469 17.109375 18.941406 17.171875 18.78125 C 17.238281 18.625 17.332031 18.484375 17.453125 18.363281 C 17.574219 18.242188 17.714844 18.152344 17.875 18.085938 C 18.03125 18.019531 18.195312 17.988281 18.367188 17.988281 C 18.539062 17.988281 18.703125 18.019531 18.863281 18.085938 C 19.019531 18.152344 19.160156 18.242188 19.28125 18.363281 C 19.402344 18.484375 19.496094 18.625 19.5625 18.78125 C 19.628906 18.941406 19.660156 19.105469 19.660156 19.277344 Z M 19.660156 19.277344 " fill-opacity="1" fill-rule="nonzero"/><path fill="#ffffff" d="M 18.398438 18.929688 C 18.398438 19.035156 18.371094 19.125 18.308594 19.203125 C 18.246094 19.277344 18.171875 19.316406 18.085938 19.316406 C 18 19.316406 17.925781 19.277344 17.867188 19.203125 C 17.804688 19.125 17.773438 19.035156 17.773438 18.929688 C 17.773438 18.824219 17.804688 18.730469 17.867188 18.65625 C 17.925781 18.582031 18 18.542969 18.085938 18.542969 C 18.171875 18.542969 18.246094 18.582031 18.308594 18.65625 C 18.371094 18.730469 18.398438 18.824219 18.398438 18.929688 Z M 18.398438 18.929688 " fill-opacity="1" fill-rule="nonzero"/><path fill="#ffffff" d="M 19.183594 19.746094 C 19.183594 19.886719 19.128906 19.957031 19.015625 19.957031 C 18.902344 19.957031 18.847656 19.886719 18.847656 19.746094 C 18.847656 19.609375 18.902344 19.539062 19.015625 19.539062 C 19.128906 19.539062 19.183594 19.609375 19.183594 19.746094 Z M 19.183594 19.746094 " fill-opacity="1" fill-rule="nonzero"/><path fill="#6b184e" d="M 12.007812 18.363281 C 12.128906 18.484375 12.222656 18.625 12.289062 18.78125 C 12.355469 18.941406 12.386719 19.105469 12.386719 19.277344 C 12.386719 19.445312 12.355469 19.609375 12.289062 19.769531 C 12.222656 19.925781 12.128906 20.066406 12.007812 20.1875 C 11.886719 20.308594 11.746094 20.402344 11.589844 20.464844 C 11.429688 20.53125 11.265625 20.566406 11.09375 20.566406 C 10.921875 20.566406 10.757812 20.53125 10.601562 20.464844 C 10.441406 20.402344 10.300781 20.308594 10.179688 20.1875 C 10.058594 20.066406 9.964844 19.925781 9.902344 19.769531 C 9.835938 19.609375 9.800781 19.445312 9.800781 19.277344 C 9.800781 19.105469 9.835938 18.941406 9.902344 18.78125 C 9.964844 18.625 10.058594 18.484375 10.179688 18.363281 C 10.300781 18.242188 10.441406 18.152344 10.601562 18.085938 C 10.757812 18.019531 10.921875 17.988281 11.09375 17.988281 C 11.265625 17.988281 11.429688 18.019531 11.589844 18.085938 C 11.746094 18.152344 11.886719 18.242188 12.007812 18.363281 Z M 12.007812 18.363281 " fill-opacity="1" fill-rule="nonzero"/><path fill="#ffffff" d="M 11.910156 18.929688 C 11.910156 19.035156 11.882812 19.125 11.820312 19.203125 C 11.757812 19.277344 11.683594 19.316406 11.597656 19.316406 C 11.511719 19.316406 11.4375 19.277344 11.378906 19.203125 C 11.316406 19.125 11.285156 19.035156 11.285156 18.929688 C 11.285156 18.824219 11.316406 18.730469 11.378906 18.65625 C 11.4375 18.582031 11.511719 18.542969 11.597656 18.542969 C 11.683594 18.542969 11.757812 18.582031 11.820312 18.65625 C 11.882812 18.730469 11.910156 18.824219 11.910156 18.929688 Z M 11.910156 18.929688 " fill-opacity="1" fill-rule="nonzero"/><path fill="#ffffff" d="M 10.839844 19.746094 C 10.839844 19.886719 10.785156 19.957031 10.671875 19.957031 C 10.558594 19.957031 10.503906 19.886719 10.503906 19.746094 C 10.503906 19.609375 10.558594 19.539062 10.671875 19.539062 C 10.785156 19.539062 10.839844 19.609375 10.839844 19.746094 Z M 10.839844 19.746094 " fill-opacity="1" fill-rule="nonzero"/><path fill="#6b184e" d="M 17.695312 17.042969 C 17.765625 16.835938 17.921875 16.667969 18.117188 16.550781 C 18.308594 16.4375 18.542969 16.382812 18.769531 16.390625 C 19 16.398438 19.226562 16.472656 19.410156 16.605469 C 19.59375 16.734375 19.734375 16.921875 19.785156 17.132812 C 19.789062 17.148438 19.78125 17.164062 19.765625 17.167969 C 19.757812 17.167969 19.75 17.167969 19.746094 17.164062 C 19.558594 17.066406 19.394531 16.992188 19.230469 16.941406 C 19.070312 16.890625 18.910156 16.863281 18.75 16.851562 C 18.585938 16.839844 18.421875 16.851562 18.257812 16.890625 C 18.089844 16.925781 17.921875 16.988281 17.734375 17.078125 C 17.71875 17.085938 17.703125 17.078125 17.695312 17.066406 C 17.695312 17.054688 17.691406 17.046875 17.695312 17.042969 Z M 17.695312 17.042969 " fill-opacity="1" fill-rule="nonzero"/><path fill="#6b184e" d="M 11.730469 17.074219 C 11.539062 16.988281 11.375 16.921875 11.207031 16.886719 C 11.039062 16.847656 10.875 16.839844 10.714844 16.847656 C 10.550781 16.859375 10.394531 16.886719 10.230469 16.9375 C 10.066406 16.988281 9.90625 17.0625 9.71875 17.160156 C 9.703125 17.167969 9.6875 17.164062 9.679688 17.148438 C 9.675781 17.144531 9.675781 17.136719 9.675781 17.128906 C 9.726562 16.917969 9.871094 16.734375 10.054688 16.601562 C 10.238281 16.46875 10.464844 16.394531 10.691406 16.386719 C 10.921875 16.378906 11.152344 16.433594 11.347656 16.546875 C 11.539062 16.664062 11.699219 16.835938 11.765625 17.039062 C 11.773438 17.054688 11.765625 17.070312 11.75 17.074219 C 11.742188 17.078125 11.734375 17.078125 11.730469 17.074219 Z M 11.730469 17.074219 " fill-opacity="1" fill-rule="nonzero"/><path fill="#6b184e" d="M 12.769531 14.667969 L 13.382812 15.90625 C 13.410156 15.964844 13.5 15.945312 13.5 15.882812 L 13.511719 14.511719 Z M 12.769531 14.667969 " fill-opacity="1" fill-rule="nonzero"/><path fill="#6b184e" d="M 16.476562 14.628906 L 15.832031 15.773438 C 15.8125 15.808594 15.757812 15.792969 15.757812 15.753906 L 15.800781 14.394531 Z M 16.476562 14.628906 " fill-opacity="1" fill-rule="nonzero"/><path fill="#6b184e" d="M 14.164062 14.339844 L 14.585938 16.292969 C 14.597656 16.34375 14.675781 16.34375 14.683594 16.292969 L 15.078125 14.328125 L 14.265625 14.304688 Z M 14.164062 14.339844 " fill-opacity="1" fill-rule="nonzero"/><path fill="#ffffff" d="M 8.617188 18.710938 C 8.980469 18.992188 8.359375 19.425781 7.808594 20.125 C 7.257812 20.820312 6.980469 21.523438 6.617188 21.238281 C 6.257812 20.953125 6.410156 20.160156 6.964844 19.460938 C 7.515625 18.761719 8.257812 18.425781 8.617188 18.710938 Z M 8.617188 18.710938 " fill-opacity="0.2471" fill-rule="nonzero"/><path fill="#6b184e" d="M 24.539062 10.539062 C 24.589844 10.507812 24.589844 10.433594 24.539062 10.402344 C 24.464844 10.359375 24.394531 10.332031 24.320312 10.308594 C 24.277344 10.296875 24.234375 10.289062 24.195312 10.28125 C 24.1875 10.238281 24.179688 10.195312 24.164062 10.152344 C 24.144531 10.082031 24.117188 10.007812 24.070312 9.9375 C 24.042969 9.886719 23.96875 9.886719 23.9375 9.9375 C 23.894531 10.007812 23.867188 10.082031 23.84375 10.152344 C 23.832031 10.195312 23.820312 10.238281 23.816406 10.28125 C 23.773438 10.289062 23.730469 10.296875 23.6875 10.308594 C 23.613281 10.332031 23.542969 10.359375 23.46875 10.402344 C 23.417969 10.433594 23.417969 10.507812 23.46875 10.539062 C 23.542969 10.582031 23.613281 10.609375 23.6875 10.628906 C 23.730469 10.644531 23.773438 10.652344 23.816406 10.660156 C 23.820312 10.703125 23.832031 10.742188 23.84375 10.785156 C 23.867188 10.859375 23.894531 10.933594 23.9375 11.003906 C 23.964844 11.054688 24.042969 11.054688 24.070312 11.003906 C 24.117188 10.933594 24.144531 10.859375 24.164062 10.785156 C 24.179688 10.742188 24.1875 10.703125 24.195312 10.660156 C 24.234375 10.652344 24.277344 10.644531 24.320312 10.628906 C 24.394531 10.609375 24.464844 10.582031 24.539062 10.539062 Z M 24.539062 10.539062 " fill-opacity="1" fill-rule="nonzero"/><path fill="#6b184e" d="M 5.785156 10.480469 C 5.835938 10.449219 5.835938 10.375 5.785156 10.34375 C 5.710938 10.300781 5.640625 10.273438 5.566406 10.25 C 5.523438 10.238281 5.480469 10.230469 5.4375 10.222656 C 5.433594 10.179688 5.421875 10.140625 5.410156 10.097656 C 5.386719 10.023438 5.363281 9.949219 5.316406 9.878906 C 5.289062 9.828125 5.214844 9.828125 5.183594 9.878906 C 5.140625 9.949219 5.109375 10.023438 5.089844 10.097656 C 5.074219 10.140625 5.066406 10.179688 5.058594 10.222656 C 5.019531 10.230469 4.976562 10.238281 4.933594 10.25 C 4.859375 10.273438 4.785156 10.300781 4.714844 10.34375 C 4.664062 10.375 4.664062 10.449219 4.714844 10.480469 C 4.785156 10.523438 4.859375 10.550781 4.933594 10.574219 C 4.976562 10.585938 5.019531 10.59375 5.058594 10.601562 C 5.066406 10.644531 5.074219 10.683594 5.089844 10.726562 C 5.109375 10.800781 5.136719 10.875 5.183594 10.945312 C 5.210938 10.996094 5.285156 10.996094 5.316406 10.945312 C 5.363281 10.875 5.390625 10.800781 5.410156 10.726562 C 5.421875 10.683594 5.433594 10.644531 5.4375 10.601562 C 5.480469 10.59375 5.523438 10.585938 5.566406 10.574219 C 5.640625 10.550781 5.710938 10.523438 5.785156 10.480469 Z M 5.785156 10.480469 " fill-opacity="1" fill-rule="nonzero"/><path fill="#6b184e" d="M 27.28125 13.308594 C 27.316406 13.289062 27.316406 13.230469 27.28125 13.207031 C 27.226562 13.175781 27.167969 13.15625 27.117188 13.136719 C 27.082031 13.128906 27.050781 13.125 27.019531 13.117188 C 27.015625 13.085938 27.007812 13.054688 27 13.023438 C 26.980469 12.96875 26.960938 12.914062 26.929688 12.859375 C 26.90625 12.820312 26.851562 12.820312 26.828125 12.859375 C 26.792969 12.914062 26.773438 12.96875 26.757812 13.023438 C 26.746094 13.054688 26.742188 13.085938 26.734375 13.117188 C 26.703125 13.121094 26.671875 13.128906 26.640625 13.136719 C 26.585938 13.15625 26.53125 13.175781 26.476562 13.207031 C 26.4375 13.230469 26.4375 13.285156 26.476562 13.308594 C 26.53125 13.34375 26.585938 13.363281 26.640625 13.378906 C 26.671875 13.390625 26.703125 13.394531 26.734375 13.402344 C 26.742188 13.433594 26.746094 13.464844 26.757812 13.496094 C 26.773438 13.550781 26.792969 13.605469 26.828125 13.660156 C 26.851562 13.699219 26.90625 13.699219 26.929688 13.660156 C 26.960938 13.605469 26.980469 13.550781 27 13.496094 C 27.007812 13.464844 27.015625 13.433594 27.019531 13.402344 C 27.050781 13.394531 27.082031 13.390625 27.117188 13.378906 C 27.167969 13.363281 27.222656 13.34375 27.28125 13.308594 Z M 27.28125 13.308594 " fill-opacity="1" fill-rule="nonzero"/><path fill="#6b184e" d="M 27.105469 10.824219 C 27.105469 10.972656 27.027344 11.050781 26.878906 11.050781 C 26.726562 11.050781 26.652344 10.972656 26.652344 10.824219 C 26.652344 10.671875 26.726562 10.597656 26.878906 10.597656 C 27.027344 10.597656 27.105469 10.671875 27.105469 10.824219 Z M 27.105469 10.824219 " fill-opacity="1" fill-rule="nonzero"/><path fill="#6b184e" d="M 1.976562 10.835938 C 2.125 10.871094 2.179688 10.960938 2.144531 11.109375 C 2.109375 11.253906 2.019531 11.308594 1.871094 11.277344 C 1.726562 11.242188 1.671875 11.152344 1.703125 11.003906 C 1.738281 10.859375 1.832031 10.800781 1.976562 10.835938 Z M 1.976562 10.835938 " fill-opacity="1" fill-rule="nonzero"/></svg>